<svg width="32" height="33" viewBox="0 0 32 33" fill="none" xmlns="http://www.w3.org/2000/svg">
<path d="M6.66667 9.83333C8.1394 9.83333 9.33333 8.6394 9.33333 7.16667C9.33333 5.69391 8.1394 4.5 6.66667 4.5C5.19391 4.5 4 5.69391 4 7.16667C4 8.6394 5.19391 9.83333 6.66667 9.83333Z" fill="#192841"/>
<path d="M16.0007 9.83333C17.4734 9.83333 18.6673 8.6394 18.6673 7.16667C18.6673 5.69391 17.4734 4.5 16.0007 4.5C14.5279 4.5 13.334 5.69391 13.334 7.16667C13.334 8.6394 14.5279 9.83333 16.0007 9.83333Z" fill="#192841"/>
<path d="M25.3327 9.83333C26.8054 9.83333 27.9993 8.6394 27.9993 7.16667C27.9993 5.69391 26.8054 4.5 25.3327 4.5C23.8599 4.5 22.666 5.69391 22.666 7.16667C22.666 8.6394 23.8599 9.83333 25.3327 9.83333Z" fill="#192841"/>
<path d="M6.66667 19.1673C8.1394 19.1673 9.33333 17.9734 9.33333 16.5007C9.33333 15.0279 8.1394 13.834 6.66667 13.834C5.19391 13.834 4 15.0279 4 16.5007C4 17.9734 5.19391 19.1673 6.66667 19.1673Z" fill="#192841"/>
<path d="M16.0007 19.1673C17.4734 19.1673 18.6673 17.9734 18.6673 16.5007C18.6673 15.0279 17.4734 13.834 16.0007 13.834C14.5279 13.834 13.334 15.0279 13.334 16.5007C13.334 17.9734 14.5279 19.1673 16.0007 19.1673Z" fill="#192841"/>
<path d="M25.3327 19.1673C26.8054 19.1673 27.9993 17.9734 27.9993 16.5007C27.9993 15.0279 26.8054 13.834 25.3327 13.834C23.8599 13.834 22.666 15.0279 22.666 16.5007C22.666 17.9734 23.8599 19.1673 25.3327 19.1673Z" fill="#192841"/>
<path d="M6.66667 28.4993C8.1394 28.4993 9.33333 27.3054 9.33333 25.8327C9.33333 24.3599 8.1394 23.166 6.66667 23.166C5.19391 23.166 4 24.3599 4 25.8327C4 27.3054 5.19391 28.4993 6.66667 28.4993Z" fill="#192841"/>
<path d="M16.0007 28.4993C17.4734 28.4993 18.6673 27.3054 18.6673 25.8327C18.6673 24.3599 17.4734 23.166 16.0007 23.166C14.5279 23.166 13.334 24.3599 13.334 25.8327C13.334 27.3054 14.5279 28.4993 16.0007 28.4993Z" fill="#192841"/>
<path d="M25.3327 28.4993C26.8054 28.4993 27.9993 27.3054 27.9993 25.8327C27.9993 24.3599 26.8054 23.166 25.3327 23.166C23.8599 23.166 22.666 24.3599 22.666 25.8327C22.666 27.3054 23.8599 28.4993 25.3327 28.4993Z" fill="#192841"/>
</svg>
