<svg width="9" height="17" viewBox="0 0 9 17" fill="none" xmlns="http://www.w3.org/2000/svg">
<path d="M7.94409 16.2678L0.230103 8.89673C0.175947 8.84586 0.132775 8.7845 0.103271 8.71631C0.0737681 8.64812 0.0585938 8.57455 0.0585938 8.50024C0.0585938 8.42594 0.0737681 8.35237 0.103271 8.28418C0.132775 8.21599 0.175947 8.15463 0.230103 8.10376L7.94409 0.732666C8.0563 0.627126 8.2046 0.568359 8.35864 0.568359C8.51269 0.568359 8.66086 0.627126 8.77307 0.732666C8.8271 0.783614 8.87012 0.845147 8.89954 0.91333C8.92896 0.981513 8.94421 1.05489 8.94421 1.12915C8.94421 1.20341 8.92896 1.27703 8.89954 1.34521C8.87012 1.4134 8.8271 1.47469 8.77307 1.52563L1.48706 8.49976L8.77307 15.4749C8.8271 15.5258 8.87012 15.5871 8.89954 15.6553C8.92896 15.7235 8.94421 15.7971 8.94421 15.8713C8.94421 15.9456 8.92896 16.019 8.89954 16.0872C8.87012 16.1553 8.8271 16.2169 8.77307 16.2678C8.66086 16.3734 8.51269 16.4321 8.35864 16.4321C8.2046 16.4321 8.0563 16.3734 7.94409 16.2678Z" fill="#222222"/>
</svg>
