<svg width="175" height="163" viewBox="0 0 175 163" fill="none" xmlns="http://www.w3.org/2000/svg">
<path d="M160.658 67.5193C159.441 62.2723 156.258 57.6917 151.765 54.7209C147.272 51.7502 141.811 50.6153 136.506 51.5501C136.537 47.8012 135.567 44.112 133.694 40.864C131.822 37.616 129.116 34.9271 125.856 33.0755C122.596 31.2238 118.901 30.2767 115.152 30.332C111.404 30.3873 107.738 31.443 104.534 33.3899C102.689 29.4845 99.6887 26.2399 95.9396 24.0947C92.1905 21.9494 87.8731 21.007 83.5711 21.3947C79.2691 21.7825 75.1899 23.4817 71.8848 26.2627C68.5797 29.0437 66.2081 32.7724 65.0906 36.9448C62.051 34.0573 58.2181 32.1436 54.0835 31.449C49.9489 30.7544 45.7011 31.3107 41.8847 33.0464C38.0684 34.7822 34.8575 37.6183 32.6638 41.1911C30.4701 44.7639 29.3936 48.9105 29.5723 53.0993C25.3868 55.9029 22.3418 60.1109 20.9874 64.9632C19.633 69.8156 20.0585 74.9923 22.187 79.5583C18.7698 83.5699 16.982 88.7175 17.1771 93.9835C17.3722 99.2496 19.536 104.251 23.2406 107.999C26.9453 111.746 31.9211 113.968 37.1846 114.224C42.448 114.48 47.616 112.751 51.6668 109.381C52.5921 112.38 54.1768 115.135 56.3048 117.443C58.4327 119.751 61.05 121.553 63.9649 122.718C66.8798 123.883 70.0184 124.382 73.1509 124.177C76.2833 123.971 79.3301 123.068 82.0682 121.533C83.8079 125.493 86.7259 128.821 90.4249 131.064C94.1238 133.307 98.424 134.355 102.74 134.066C107.056 133.777 111.178 132.165 114.546 129.45C117.913 126.734 120.361 123.047 121.558 118.89C124.991 119.493 128.519 119.233 131.827 118.134C135.134 117.036 138.117 115.133 140.508 112.597C142.898 110.061 144.621 106.97 145.522 103.604C146.423 100.237 146.474 96.6993 145.67 93.3081C145.622 93.1032 145.574 92.8983 145.527 92.6934C150.833 91.2978 155.384 87.8851 158.21 83.1827C161.037 78.4802 161.915 72.8598 160.658 67.5193Z" fill="#C5C8C9" stroke="#8D9BA2" stroke-linecap="round" stroke-linejoin="round"/>
<path d="M72.293 135.83C77.9672 134.505 81.7693 130.015 80.7852 125.802C79.8011 121.589 74.4035 119.248 68.7292 120.573C63.055 121.898 59.2528 126.388 60.2369 130.601C61.221 134.815 66.6187 137.156 72.293 135.83Z" fill="#C5C8C9" stroke="#8FA3AC" stroke-linecap="round" stroke-linejoin="round"/>
<path d="M74.6035 146.312C75.291 149.256 72.6322 152.382 68.6828 153.304C64.7333 154.227 60.965 152.602 60.2775 149.659C59.5899 146.715 62.2394 143.591 66.1982 142.667C70.1569 141.742 73.9182 143.378 74.6035 146.312Z" fill="#C5C8C9" stroke="#8FA3AC" stroke-linecap="round" stroke-linejoin="round"/>
<path d="M156.566 62.12C155.349 56.8744 152.168 52.2949 147.677 49.3239C143.186 46.3529 137.727 45.2165 132.423 46.1486C132.454 42.3997 131.484 38.7105 129.612 35.4625C127.739 32.2144 125.033 29.5256 121.773 27.6739C118.514 25.8223 114.818 24.8752 111.07 24.9305C107.321 24.9857 103.655 26.0414 100.451 27.9884C98.6021 24.0875 95.6009 20.8477 91.8526 18.706C88.1044 16.5643 83.7894 15.6238 79.4899 16.0113C75.1903 16.3988 71.1131 18.0957 67.8082 20.8731C64.5033 23.6505 62.1297 27.3747 61.0078 31.5433C57.9681 28.6558 54.1352 26.7421 50.0006 26.0475C45.866 25.3529 41.6182 25.9091 37.8019 27.6449C33.9855 29.3806 30.7746 32.2168 28.5809 35.7896C26.3872 39.3624 25.3107 43.509 25.4894 47.6977C21.2971 50.4927 18.2467 54.6991 16.8928 59.5524C15.5388 64.4057 15.9712 69.5837 18.1113 74.1453C14.679 78.1549 12.8787 83.3079 13.0674 88.5825C13.2561 93.8572 15.42 98.8684 19.1301 102.622C22.8401 106.377 27.8254 108.599 33.0975 108.85C38.3695 109.101 43.5434 107.362 47.5932 103.977C49.1674 109.075 52.6189 113.384 57.2497 116.034C61.8804 118.683 67.3447 119.475 72.537 118.249C74.4502 117.8 76.2901 117.083 78.0017 116.118C79.7403 120.079 82.6575 123.408 86.3561 125.652C90.0547 127.896 94.3551 128.946 98.6716 128.658C102.988 128.37 107.111 126.759 110.479 124.044C113.847 121.329 116.296 117.642 117.494 113.485C120.924 114.065 124.444 113.789 127.741 112.682C131.039 111.575 134.012 109.67 136.397 107.137C138.781 104.604 140.503 101.522 141.409 98.1633C142.316 94.8048 142.379 91.2744 141.592 87.8858C141.542 87.6716 141.496 87.476 141.449 87.271C146.747 85.8723 151.291 82.4619 154.114 77.765C156.937 73.0681 157.817 67.4552 156.566 62.12Z" fill="white" stroke="#8FA3AC" stroke-miterlimit="10"/>
<path d="M76.702 120.389C77.6876 124.609 73.8846 129.102 68.2398 130.42C62.5951 131.739 57.1952 129.395 56.2096 125.176C55.224 120.956 59.0292 116.472 64.6739 115.154C70.3186 113.835 75.7186 116.179 76.702 120.389Z" fill="white" stroke="#8FA3AC" stroke-miterlimit="10"/>
<path d="M70.5137 140.91C71.199 143.844 68.5517 146.977 64.5929 147.902C60.6342 148.826 56.873 147.19 56.1876 144.256C55.5023 141.322 58.1589 138.187 62.1083 137.264C66.0578 136.342 69.8283 137.976 70.5137 140.91Z" fill="white" stroke="#8FA3AC" stroke-miterlimit="10"/>
<path d="M70.7978 76.8676C70.6339 76.1657 70.2655 75.5282 69.7392 75.0356C69.213 74.5431 68.5524 74.2177 67.8412 74.1006C67.13 73.9834 66.4 74.0798 65.7436 74.3775C65.0872 74.6753 64.5337 75.161 64.1533 75.7732C63.7729 76.3855 63.5826 77.0968 63.6065 77.8172C63.6303 78.5376 63.8673 79.2347 64.2874 79.8205C64.7075 80.4062 65.2918 80.8542 65.9665 81.1079C66.6412 81.3615 67.376 81.4094 68.0779 81.2454C69.0178 81.0233 69.8315 80.4381 70.3412 79.6178C70.8509 78.7974 71.0151 77.8087 70.7978 76.8676Z" fill="#3EA0B3"/>
<path d="M87.8564 72.8832C87.6925 72.1813 87.3241 71.5438 86.7978 71.0513C86.2716 70.5587 85.611 70.2333 84.8998 70.1162C84.1886 69.999 83.4586 70.0954 82.8022 70.3932C82.1458 70.6909 81.5923 71.1766 81.2119 71.7889C80.8315 72.4011 80.6412 73.1124 80.6651 73.8328C80.6889 74.5532 80.9259 75.2504 81.346 75.8361C81.7661 76.4218 82.3504 76.8699 83.0251 77.1235C83.6998 77.3771 84.4346 77.425 85.1365 77.2611C86.0777 77.0412 86.8931 76.4565 87.4031 75.6355C87.9132 74.8145 88.0763 73.8245 87.8564 72.8832Z" fill="#3EA0B3"/>
<path d="M104.864 68.9106C104.7 68.2087 104.332 67.5711 103.806 67.0786C103.279 66.5861 102.619 66.2607 101.908 66.1435C101.196 66.0264 100.466 66.1228 99.81 66.4205C99.1536 66.7182 98.6001 67.2039 98.2198 67.8162C97.8394 68.4284 97.649 69.1398 97.6729 69.8602C97.6968 70.5806 97.9337 71.2777 98.3538 71.8635C98.7739 72.4492 99.3582 72.8972 100.033 73.1509C100.708 73.4045 101.442 73.4524 102.144 73.2884C103.084 73.0663 103.898 72.4811 104.408 71.6607C104.917 70.8404 105.081 69.8516 104.864 68.9106Z" fill="#3EA0B3"/>
</svg>
