<svg width="20" height="21" viewBox="0 0 20 21" fill="none" xmlns="http://www.w3.org/2000/svg">
<path d="M5.49998 3.5C5.41357 3.49998 5.32863 3.52236 5.25345 3.56495C5.17826 3.60753 5.1154 3.66888 5.07098 3.743L2.07098 8.743C2.01773 8.83197 1.99345 8.9353 2.00151 9.03867C2.00958 9.14205 2.04958 9.24036 2.11598 9.32L9.61598 18.32C9.66291 18.3763 9.72163 18.4215 9.78798 18.4526C9.85434 18.4837 9.92671 18.4998 9.99998 18.4998C10.0733 18.4998 10.1456 18.4837 10.212 18.4526C10.2783 18.4215 10.3371 18.3763 10.384 18.32L17.884 9.32C17.9504 9.24036 17.9904 9.14205 17.9985 9.03867C18.0065 8.9353 17.9822 8.83197 17.929 8.743L14.929 3.743C14.8846 3.66888 14.8217 3.60753 14.7465 3.56495C14.6713 3.52236 14.5864 3.49998 14.5 3.5H5.49998ZM3.38298 8.5L5.78298 4.5H7.76198L6.16198 8.5H3.38298ZM6.15798 9.5L8.42498 15.329L3.56798 9.5H6.15798ZM9.99998 16.62L7.23098 9.5H12.769L9.99998 16.62ZM7.23898 8.5L8.83898 4.5H11.161L12.761 8.5H7.23998H7.23898ZM13.839 8.5L12.239 4.5H14.217L16.617 8.5H13.838H13.839ZM13.842 9.5H16.432L11.575 15.329L13.842 9.5V9.5Z" fill="white"/>
</svg>
