<svg width="19" height="20" viewBox="0 0 19 20" fill="none" xmlns="http://www.w3.org/2000/svg">
<path d="M3.53984 15.625C3.58672 15.625 3.63359 15.6203 3.68047 15.6133L7.62266 14.9219C7.66953 14.9125 7.71406 14.8914 7.74688 14.8563L17.682 4.92109C17.7038 4.89941 17.721 4.87366 17.7328 4.8453C17.7445 4.81695 17.7506 4.78656 17.7506 4.75586C17.7506 4.72516 17.7445 4.69477 17.7328 4.66642C17.721 4.63806 17.7038 4.61231 17.682 4.59063L13.7867 0.692969C13.7422 0.648438 13.6836 0.625 13.6203 0.625C13.557 0.625 13.4984 0.648438 13.4539 0.692969L3.51875 10.6281C3.48359 10.6633 3.4625 10.7055 3.45312 10.7523L2.76172 14.6945C2.73892 14.8201 2.74707 14.9493 2.78545 15.071C2.82384 15.1927 2.89132 15.3032 2.98203 15.393C3.13672 15.543 3.33125 15.625 3.53984 15.625ZM4.5 11.5L13.6203 2.03906L16.3383 4.75703L7 14L4 14.5L4.5 11.5ZM18 19H1C0.585156 19 0 19.5852 0 20C0 20 0.396875 20 0.5 20H18.5C18.6031 20 19 20 19 20C19 19.5852 18.4148 19 18 19Z" fill="#656F80"/>
</svg>
