<svg width="200" height="203" viewBox="0 0 200 203" fill="none" xmlns="http://www.w3.org/2000/svg">
<path d="M99.9872 202.5C155.209 202.5 199.974 176.655 199.974 144.773C199.974 112.892 155.209 87.0469 99.9872 87.0469C44.7658 87.0469 0 112.892 0 144.773C0 176.655 44.7658 202.5 99.9872 202.5Z" fill="#F5F5F5"/>
<path d="M115.68 185.2C127.622 185.2 137.304 179.611 137.304 172.717C137.304 165.823 127.622 160.234 115.68 160.234C103.738 160.234 94.0566 165.823 94.0566 172.717C94.0566 179.611 103.738 185.2 115.68 185.2Z" fill="#E0E0E0"/>
<path d="M104.441 130.446L46.6044 163.843C44.9764 164.801 42.137 164.667 40.2552 163.58L19.7234 151.724C17.8464 150.642 17.6406 149 19.2446 148.061L77.0813 114.664C78.7092 113.706 81.5486 113.84 83.4304 114.927L103.962 126.783C105.863 127.865 106.069 129.507 104.441 130.446Z" fill="#E0E0E0"/>
<path d="M166.718 142.105L171.276 144.753C171.276 144.753 168.978 137.418 170.251 130.034C170.559 128.296 171.187 126.63 172.104 125.121C172.463 124.374 175.212 119.773 172.794 117.647C170.376 115.521 164.702 119.749 164.956 131.116C165.077 134.839 165.669 138.531 166.718 142.105Z" fill="#58E5FF"/>
<path opacity="0.5" d="M166.718 142.105L171.276 144.753C171.276 144.753 168.978 137.418 170.251 130.034C170.559 128.296 171.187 126.63 172.104 125.121C172.463 124.374 175.212 119.773 172.794 117.647C170.376 115.521 164.702 119.749 164.956 131.116C165.077 134.839 165.669 138.531 166.718 142.105Z" fill="black"/>
<path d="M168.839 143.547C168.796 143.546 168.754 143.533 168.719 143.508C168.684 143.483 168.657 143.448 168.643 143.408C168.643 143.36 166.905 138.576 166.996 130.906C167.087 123.235 171.142 119.069 171.185 119.031C171.204 119.012 171.226 118.997 171.251 118.986C171.276 118.976 171.302 118.971 171.329 118.971C171.356 118.971 171.382 118.976 171.407 118.986C171.432 118.997 171.454 119.012 171.473 119.031C171.492 119.05 171.507 119.073 171.518 119.098C171.528 119.123 171.533 119.15 171.533 119.177C171.533 119.204 171.528 119.231 171.518 119.256C171.507 119.281 171.492 119.304 171.473 119.323C171.434 119.361 167.498 123.369 167.407 130.911C167.316 138.452 169.016 143.221 169.031 143.269C169.041 143.294 169.045 143.321 169.045 143.348C169.044 143.375 169.038 143.401 169.027 143.426C169.015 143.451 168.999 143.473 168.98 143.491C168.96 143.509 168.936 143.523 168.911 143.532L168.839 143.547Z" fill="white"/>
<path d="M170.252 144.174L177.779 148.618C177.779 148.618 181.226 148.11 180.968 144.864C180.709 141.617 179.306 140.856 181.049 139.429C182.792 138.002 183.242 137.911 183.156 136.513C183.07 135.115 182.136 134.507 181.691 133.956C181.245 133.406 180.02 132.237 180.886 130.557C181.753 128.876 182.926 127.243 181.183 126.468C180.139 125.989 178.387 126.587 177.228 127.818C176.069 129.048 175.107 129.939 174.01 130.212C172.914 130.485 170.616 130.518 170.692 132.415C170.769 134.311 171.262 134.967 170.802 135.805C169.936 137.389 166.234 138.247 170.252 144.174Z" fill="#58E5FF"/>
<path opacity="0.2" d="M170.252 144.174L177.779 148.618C177.779 148.618 181.226 148.11 180.968 144.864C180.709 141.617 179.306 140.856 181.049 139.429C182.792 138.002 183.242 137.911 183.156 136.513C183.07 135.115 182.136 134.507 181.691 133.956C181.245 133.406 180.02 132.237 180.886 130.557C181.753 128.876 182.926 127.243 181.183 126.468C180.139 125.989 178.387 126.587 177.228 127.818C176.069 129.048 175.107 129.939 174.01 130.212C172.914 130.485 170.616 130.518 170.692 132.415C170.769 134.311 171.262 134.967 170.802 135.805C169.936 137.389 166.234 138.247 170.252 144.174Z" fill="black"/>
<path d="M173.317 146.184C173.265 146.185 173.214 146.165 173.176 146.129C173.138 146.094 173.115 146.045 173.111 145.993C173.111 145.883 172.287 134.659 180.083 127.29C180.123 127.253 180.176 127.233 180.231 127.234C180.285 127.236 180.337 127.26 180.375 127.3C180.412 127.34 180.432 127.393 180.43 127.448C180.429 127.503 180.405 127.554 180.365 127.592C172.704 134.822 173.518 145.849 173.528 145.959C173.532 146.015 173.514 146.069 173.478 146.111C173.442 146.153 173.391 146.18 173.336 146.184H173.317Z" fill="white"/>
<path d="M174.685 136.564C174.633 136.564 174.583 136.544 174.545 136.509C174.506 136.473 174.483 136.425 174.479 136.373C174.421 135.511 174.188 134.67 173.795 133.901C173.401 133.132 172.856 132.452 172.191 131.9C172.169 131.884 172.15 131.864 172.136 131.841C172.122 131.818 172.112 131.792 172.108 131.765C172.104 131.738 172.105 131.711 172.111 131.684C172.118 131.658 172.129 131.633 172.145 131.611C172.161 131.589 172.181 131.57 172.205 131.556C172.228 131.542 172.254 131.532 172.281 131.528C172.308 131.524 172.335 131.525 172.361 131.531C172.388 131.538 172.413 131.549 172.435 131.565C173.153 132.15 173.742 132.878 174.165 133.702C174.587 134.526 174.835 135.429 174.891 136.353C174.895 136.407 174.878 136.461 174.843 136.502C174.808 136.543 174.758 136.569 174.705 136.574L174.685 136.564Z" fill="white"/>
<path d="M174.11 138.48C174.058 138.481 174.009 138.462 173.971 138.428C173.933 138.388 173.912 138.336 173.912 138.282C173.912 138.227 173.933 138.175 173.971 138.135C174.052 138.045 176.016 135.923 180.555 136.546C180.608 136.555 180.657 136.585 180.69 136.628C180.722 136.672 180.738 136.726 180.732 136.78C180.724 136.835 180.694 136.884 180.651 136.917C180.607 136.95 180.552 136.964 180.497 136.958C176.188 136.369 174.297 138.394 174.273 138.394C174.255 138.421 174.231 138.443 174.202 138.458C174.174 138.473 174.142 138.481 174.11 138.48Z" fill="white"/>
<path d="M28.7021 135.661L26.4564 140.425C26.4564 140.425 24.182 133.08 18.9437 127.722C17.7076 126.463 16.2457 125.448 14.6343 124.729C13.9209 124.317 9.0465 122.086 9.84613 118.983C10.6458 115.881 17.6988 116.11 23.9426 125.625C25.9458 128.756 27.545 132.128 28.7021 135.661Z" fill="#58E5FF"/>
<path opacity="0.5" d="M28.7021 135.661L26.4564 140.425C26.4564 140.425 24.182 133.08 18.9437 127.722C17.7076 126.463 16.2457 125.448 14.6343 124.729C13.9209 124.317 9.0465 122.086 9.84613 118.983C10.6458 115.881 17.6988 116.11 23.9426 125.625C25.9458 128.756 27.545 132.128 28.7021 135.661Z" fill="black"/>
<path d="M27.66 138.082C27.6144 138.082 27.5701 138.067 27.5339 138.039C27.4976 138.012 27.4713 137.973 27.4589 137.929C27.4589 137.881 26.1661 133.031 21.7849 126.83C17.4037 120.629 11.9212 119.605 11.8876 119.595C11.8609 119.59 11.8353 119.581 11.8124 119.566C11.7894 119.551 11.7696 119.533 11.754 119.51C11.7384 119.488 11.7274 119.463 11.7216 119.436C11.7158 119.41 11.7152 119.382 11.7201 119.356C11.7305 119.302 11.7613 119.255 11.806 119.224C11.8506 119.192 11.9056 119.18 11.9595 119.188C12.0169 119.188 17.7053 120.289 22.1488 126.591C26.5922 132.892 27.8946 137.776 27.8946 137.824C27.9078 137.877 27.8997 137.933 27.872 137.981C27.8442 138.028 27.7991 138.063 27.7462 138.078L27.66 138.082Z" fill="white"/>
<path d="M26.9695 139.37L23.2826 147.285C23.2826 147.285 20.1559 148.822 18.5327 146.002C16.9095 143.182 17.623 141.76 15.3821 141.573C13.1412 141.386 12.7103 141.573 11.9873 140.371C11.2642 139.169 11.6904 138.135 11.7431 137.431C11.7957 136.727 12.1501 135.066 10.479 134.17C8.8079 133.275 6.91656 132.605 7.91729 130.977C8.51103 130.019 10.2827 129.488 11.9394 129.847C13.5961 130.206 14.8841 130.388 15.9519 130C17.0197 129.612 18.9206 128.329 19.9357 129.933C20.9508 131.537 20.8933 132.356 21.7696 132.806C23.3784 133.601 26.9121 132.202 26.9695 139.37Z" fill="#58E5FF"/>
<path opacity="0.2" d="M26.9695 139.37L23.2826 147.285C23.2826 147.285 20.1559 148.822 18.5327 146.002C16.9095 143.182 17.623 141.76 15.3821 141.573C13.1412 141.386 12.7103 141.573 11.9873 140.371C11.2642 139.169 11.6904 138.135 11.7431 137.431C11.7957 136.727 12.1501 135.066 10.479 134.17C8.8079 133.275 6.91656 132.605 7.91729 130.977C8.51103 130.019 10.2827 129.488 11.9394 129.847C13.5961 130.206 14.8841 130.388 15.9519 130C17.0197 129.612 18.9206 128.329 19.9357 129.933C20.9508 131.537 20.8933 132.356 21.7696 132.806C23.3784 133.601 26.9121 132.202 26.9695 139.37Z" fill="black"/>
<path d="M25.4661 142.8C25.4298 142.8 25.3942 142.79 25.363 142.772C25.3318 142.753 25.3062 142.727 25.2889 142.695C25.2315 142.599 19.6341 133.066 9.2341 131.452C9.2069 131.448 9.1808 131.438 9.15732 131.424C9.13384 131.41 9.11346 131.391 9.0974 131.369C9.08133 131.346 9.0699 131.321 9.06377 131.294C9.05764 131.267 9.05695 131.24 9.06172 131.213C9.06519 131.186 9.07411 131.16 9.08793 131.136C9.10175 131.113 9.12018 131.092 9.14212 131.076C9.16406 131.06 9.18904 131.049 9.21555 131.042C9.24206 131.036 9.26955 131.035 9.29635 131.04C19.8974 132.687 25.5762 142.393 25.648 142.489C25.6654 142.521 25.6741 142.556 25.6736 142.593C25.673 142.629 25.6631 142.664 25.6448 142.696C25.6265 142.727 25.6004 142.753 25.5691 142.771C25.5378 142.79 25.5023 142.799 25.4661 142.8Z" fill="white"/>
<path d="M18.9019 135.645C18.865 135.645 18.8288 135.636 18.7968 135.617C18.7649 135.599 18.7384 135.572 18.7199 135.54C18.2444 134.747 17.9381 133.864 17.8203 132.947C17.7024 132.03 17.7756 131.098 18.0352 130.211C18.0443 130.185 18.0584 130.162 18.0766 130.142C18.0947 130.122 18.1167 130.106 18.1411 130.094C18.1656 130.082 18.1921 130.076 18.2191 130.074C18.2461 130.073 18.2731 130.077 18.2986 130.086C18.324 130.095 18.3475 130.109 18.3675 130.128C18.3875 130.146 18.4038 130.168 18.4154 130.192C18.4269 130.217 18.4336 130.243 18.4349 130.27C18.4362 130.297 18.4322 130.324 18.4231 130.35C18.189 131.181 18.1255 132.051 18.2366 132.908C18.3477 133.765 18.631 134.59 19.0695 135.334C19.0831 135.358 19.092 135.384 19.0955 135.411C19.0991 135.438 19.0972 135.465 19.0901 135.491C19.083 135.518 19.0707 135.542 19.054 135.564C19.0373 135.585 19.0166 135.603 18.9929 135.617C18.9655 135.634 18.9342 135.644 18.9019 135.645Z" fill="white"/>
<path d="M14.3097 139.285C14.281 139.284 14.2526 139.278 14.2263 139.266C14.2 139.255 14.1762 139.238 14.1565 139.217C14.1372 139.198 14.1219 139.176 14.1115 139.151C14.1011 139.125 14.0957 139.099 14.0957 139.071C14.0957 139.044 14.1011 139.017 14.1115 138.992C14.1219 138.967 14.1372 138.945 14.1565 138.925C17.5369 135.837 20.3811 136.469 20.4769 136.498C20.5034 136.504 20.5283 136.515 20.5504 136.531C20.5724 136.547 20.5911 136.567 20.6054 136.59C20.6196 136.614 20.6291 136.639 20.6334 136.666C20.6376 136.693 20.6365 136.72 20.6301 136.747C20.6245 136.774 20.6135 136.799 20.5978 136.821C20.5821 136.844 20.5619 136.863 20.5386 136.877C20.5153 136.891 20.4893 136.901 20.4622 136.905C20.4352 136.909 20.4076 136.907 20.3811 136.9C20.3524 136.9 17.6423 136.301 14.4342 139.232C14.3992 139.262 14.3557 139.28 14.3097 139.285Z" fill="white"/>
<path d="M27.0202 39.2079C27.0207 37.8137 27.3877 36.4442 28.0844 35.2365C28.7811 34.0289 29.7829 33.0256 30.9896 32.3273L81.5147 3.15757C81.8518 2.96322 82.2281 2.84686 82.6161 2.81704C83.004 2.78721 83.3937 2.84468 83.7566 2.98522C84.1194 3.12576 84.4461 3.3458 84.7128 3.62917C84.9794 3.91254 85.1792 4.25205 85.2974 4.62275C85.1617 4.02885 84.9078 3.46836 84.5508 2.97476C84.1937 2.48115 83.7409 2.06456 83.2193 1.74984L83.0373 1.6445C81.78 0.896458 80.3442 0.501135 78.8812 0.500116C78.4136 0.495687 77.9536 0.618143 77.5501 0.854444L27.025 30.0385C25.8164 30.7352 24.8128 31.7379 24.1151 32.9459C23.4174 34.1538 23.0503 35.5242 23.0508 36.9192V146.181C23.0514 146.638 23.1719 147.086 23.4003 147.481C23.6287 147.876 23.957 148.205 24.3522 148.433C24.7474 148.661 25.1958 148.782 25.6522 148.783C26.1087 148.783 26.5574 148.664 26.9532 148.436L27.0202 148.398V39.2079Z" fill="#37474F"/>
<path d="M81.4489 121.555L30.9239 150.724C30.5286 150.953 30.0801 151.074 29.6235 151.074C29.1669 151.074 28.7182 150.954 28.3226 150.726C27.927 150.498 27.5985 150.17 27.3701 149.774C27.1417 149.379 27.0215 148.93 27.0215 148.474V39.2071C27.022 37.8129 27.389 36.4434 28.0857 35.2357C28.7823 34.0281 29.7842 33.0248 30.9909 32.3265L81.516 3.15676C81.9118 2.92936 82.3604 2.80997 82.8169 2.81055C83.2734 2.81113 83.7217 2.93166 84.1169 3.16007C84.5122 3.38848 84.8404 3.71675 85.0688 4.11198C85.2973 4.50721 85.4178 4.95552 85.4184 5.41201V114.674C85.4188 116.068 85.0523 117.438 84.3555 118.646C83.6587 119.854 82.6563 120.857 81.4489 121.555Z" fill="#455A64"/>
<path d="M27.0202 148.474V39.207C27.0207 38.0167 27.2891 36.8417 27.8055 35.7691L23.8983 33.375C23.3418 34.4818 23.0516 35.7034 23.0508 36.9422V147.119C23.0509 147.552 23.1634 147.978 23.3775 148.355C23.5915 148.732 23.8996 149.046 24.2718 149.269L26.2876 150.466C26.9853 150.882 27.7828 151.102 28.5955 151.102H29.601C29.259 151.099 28.9209 151.029 28.606 150.895C28.2912 150.761 28.0058 150.567 27.7662 150.323C27.5265 150.079 27.3373 149.79 27.2093 149.472C27.0813 149.155 27.017 148.816 27.0202 148.474Z" fill="#263238"/>
<path d="M79.7088 13.6621V105.524C79.7078 106.755 79.3831 107.965 78.767 109.031C78.151 110.098 77.2654 110.984 76.1991 111.6L31.5826 137.356C31.2463 137.551 30.8654 137.656 30.4766 137.662C30.6053 137.96 30.7956 138.227 31.0349 138.446C31.2742 138.665 31.5572 138.831 31.8652 138.932C32.1732 139.034 32.4993 139.07 32.8219 139.036C33.1446 139.003 33.4566 138.902 33.7373 138.739L78.3538 112.979C79.4199 112.363 80.305 111.477 80.9203 110.41C81.5355 109.344 81.8592 108.134 81.8587 106.903V15.9509C81.8598 15.3672 81.6378 14.8051 81.2382 14.3797C80.8385 13.9542 80.2915 13.6975 79.7088 13.6621Z" fill="#37474F"/>
<path d="M30.4778 137.638C30.8666 137.632 31.2475 137.527 31.5838 137.332L76.2003 111.576C77.2631 110.962 78.1465 110.08 78.7623 109.018C79.3781 107.956 79.7049 106.751 79.71 105.524V13.6621C79.2621 13.6659 78.8206 13.7689 78.4172 13.9638L33.8008 39.7195C32.7338 40.335 31.8476 41.2206 31.2315 42.2872C30.6154 43.3538 30.291 44.5639 30.291 45.7957V136.724C30.2906 137.043 30.3557 137.359 30.4825 137.653L30.4778 137.638Z" fill="#58E5FF"/>
<g opacity="0.5">
<path d="M30.4778 137.64C30.8666 137.634 31.2475 137.529 31.5838 137.334L76.2003 111.578C77.2631 110.964 78.1465 110.082 78.7623 109.02C79.3781 107.958 79.7049 106.753 79.71 105.526V13.6641C79.2621 13.6678 78.8206 13.7709 78.4172 13.9657L33.8008 39.7214C32.7338 40.3369 31.8476 41.2225 31.2315 42.2892C30.6154 43.3558 30.291 44.5659 30.291 45.7977V136.726C30.2906 137.045 30.3557 137.361 30.4825 137.654L30.4778 137.64Z" fill="white"/>
</g>
<path d="M49.147 26.2613C49.1318 26.5399 49.0516 26.811 48.9127 27.053C48.7738 27.2949 48.5802 27.501 48.3474 27.6547C47.9021 27.9084 47.543 27.7026 47.543 27.1759C47.5583 26.8968 47.6391 26.6252 47.7789 26.3832C47.9186 26.1411 48.1134 25.9353 48.3474 25.7825C48.7879 25.5622 49.147 25.749 49.147 26.2613Z" fill="#263238"/>
<path d="M52.1381 24.5372C52.122 24.8161 52.0409 25.0874 51.9012 25.3293C51.7615 25.5713 51.5672 25.7772 51.3337 25.9306C50.8884 26.1844 50.5293 25.9785 50.5293 25.4518C50.5447 25.1727 50.6255 24.9011 50.7652 24.6591C50.905 24.417 51.0997 24.2113 51.3337 24.0584C51.7742 23.819 52.1381 24.0249 52.1381 24.5372Z" fill="#263238"/>
<path d="M64.2007 18.4998L54.4999 24.126C54.112 24.3462 53.8008 24.126 53.8008 23.5993C53.8048 23.3381 53.8702 23.0816 53.9917 22.8504C54.1131 22.6192 54.2872 22.4197 54.4999 22.2682L64.2151 16.6612C64.5982 16.4361 64.9094 16.6612 64.9094 17.1831C64.9017 17.4425 64.8336 17.6966 64.7106 17.9252C64.5876 18.1537 64.413 18.3505 64.2007 18.4998Z" fill="#263238"/>
<path d="M62.5582 125.003C63.1375 125.003 63.5158 125.621 63.5158 126.573C63.5158 128.067 62.5821 129.872 61.4712 130.514L56.8219 133.2C56.6142 133.33 56.3768 133.404 56.1324 133.416C55.553 133.416 55.1748 132.798 55.1748 131.845C55.1748 130.347 56.1324 128.541 57.2193 127.905L61.8687 125.218C62.0778 125.088 62.3169 125.014 62.563 125.003M62.563 124.605C62.247 124.615 61.9394 124.709 61.6723 124.878L57.023 127.56C55.7829 128.273 54.7773 130.193 54.7773 131.869C54.7773 133.1 55.3376 133.837 56.1324 133.837C56.4484 133.828 56.756 133.733 57.023 133.564L61.6723 130.883C62.9077 130.169 63.9132 128.249 63.9132 126.573C63.9132 125.343 63.3578 124.605 62.563 124.605Z" fill="#263238"/>
<path d="M36.875 52.2348V155.181C36.875 157.048 37.5597 158.298 38.6035 158.71H38.6323L43.0853 161.147L43.0566 157.192L42.5777 50.4488L37.8805 48.0547C37.2502 49.3601 36.9073 50.7855 36.875 52.2348Z" fill="#E6E6E6"/>
<path d="M43.3306 161.544L38.5137 158.906C37.3214 158.427 36.6367 157.024 36.6367 155.156V52.2102C36.6622 50.717 37.0101 49.247 37.6566 47.9008L37.7619 47.6758L42.8087 50.2566V50.4003L43.2875 157.144L43.3306 161.544ZM38.7579 158.494L42.847 160.735V157.182L42.3682 50.5822L38.0253 48.3605C37.4759 49.5744 37.1794 50.8875 37.1538 52.2198V155.166C37.1538 156.852 37.7428 158.087 38.7339 158.475L38.7914 158.503L38.7579 158.494Z" fill="#E6E6E6"/>
<path d="M37.8711 48.0641L42.5683 50.4582L92.8444 21.2071L96.1962 19.2535L91.5564 16.6391L91.4271 16.5625C90.6849 16.1172 89.7177 16.1459 88.65 16.7636L41.0648 44.2335C39.6435 45.1649 38.5317 46.4984 37.8711 48.0641Z" fill="#E0E0E0"/>
<path d="M42.5685 50.6928C42.53 50.6924 42.4921 50.6825 42.4583 50.664L37.7611 48.2699C37.7335 48.2567 37.7089 48.238 37.6886 48.2151C37.6683 48.1922 37.6528 48.1655 37.643 48.1365C37.6332 48.1075 37.6293 48.0768 37.6315 48.0463C37.6336 48.0158 37.6419 47.986 37.6558 47.9587C38.3402 46.3536 39.4849 44.9874 40.9453 44.0324L88.54 16.5529C89.6413 15.9209 90.7138 15.849 91.5565 16.3566H91.5949L91.6906 16.414L96.3256 19.0236C96.3618 19.0456 96.3919 19.0765 96.4128 19.1134C96.4338 19.1503 96.4449 19.1919 96.4453 19.2343C96.4461 19.2763 96.4353 19.3177 96.4142 19.354C96.3931 19.3903 96.3624 19.4201 96.3256 19.4402L42.6978 50.6449C42.66 50.6727 42.6152 50.6893 42.5685 50.6928ZM38.1873 47.9396L42.5637 50.1804L95.7127 19.2534L91.3028 16.7636L91.2692 16.7349C90.5845 16.3422 89.6987 16.4236 88.7698 16.9599L41.1751 44.4394C39.867 45.2987 38.8306 46.5128 38.1873 47.9396Z" fill="#E0E0E0"/>
<path d="M41.4805 54.8191V157.287C41.4805 158.9 41.9976 160.059 42.8164 160.605L43.0893 160.753C43.8027 161.088 44.6981 161.017 45.6701 160.452L68.6774 147.179L93.284 132.383C94.5441 131.595 95.5877 130.505 96.3201 129.211C97.0525 127.918 97.4506 126.462 97.4785 124.976V22.5083C97.4785 20.9474 96.9996 19.8174 96.224 19.2476C96.093 19.1494 95.9497 19.0689 95.7978 19.0081C95.3826 18.8614 94.9387 18.8143 94.502 18.8709C94.0653 18.9275 93.6481 19.086 93.284 19.3337L45.6893 47.2777C44.3465 47.9804 43.2605 49.09 42.5865 50.4475C41.8957 51.8037 41.5177 53.2975 41.4805 54.8191Z" fill="#FAFAFA"/>
<path d="M93.2844 132.384C83.4925 138.225 58.0145 153.428 45.4024 161.027C45.0261 161.252 44.5969 161.373 44.1585 161.378C43.72 161.384 43.288 161.273 42.9065 161.056C42.5249 160.84 42.2075 160.527 41.9865 160.148C41.7655 159.77 41.6488 159.339 41.6484 158.901V53.5315C41.6484 52.332 41.9622 51.1533 42.5585 50.1126C43.1549 49.0719 44.0132 48.2053 45.0481 47.5989L93.4951 19.1953C93.8714 18.9757 94.299 18.8592 94.7348 18.8574C95.1705 18.8557 95.599 18.9687 95.9771 19.1852C96.3553 19.4017 96.6697 19.714 96.8888 20.0907C97.1079 20.4674 97.2239 20.8951 97.2251 21.3308V125.407C97.2256 126.811 96.863 128.191 96.1726 129.414C95.482 130.636 94.4871 131.659 93.2844 132.384Z" fill="#FAFAFA"/>
<path d="M93.1468 132.173C85.4569 136.75 77.7703 141.341 70.0868 145.944L56.4404 154.108L50.2158 157.842L47.4913 159.48C46.6533 159.983 45.7627 160.701 44.8338 161.022C43.2968 161.558 41.913 160.327 41.8747 158.81C41.8747 158.565 41.8747 158.331 41.8747 158.077V61.4703C41.8747 58.899 41.8747 56.323 41.8747 53.7517C41.8571 52.5343 42.1647 51.3343 42.7657 50.2754C43.3666 49.2165 44.2393 48.3372 45.2935 47.7281C46.4044 47.0722 47.52 46.4258 48.6452 45.7746L64.2835 36.5716L82.8378 25.6976C86.3571 23.6387 89.8668 21.5606 93.3718 19.5113C94.4635 18.8792 95.8377 18.9415 96.599 20.0859C96.8683 20.5427 96.9951 21.0696 96.9629 21.5989V125.005C97.011 126.433 96.6823 127.848 96.0099 129.109C95.3375 130.37 94.3451 131.432 93.1324 132.187C92.869 132.35 93.1084 132.767 93.3718 132.604C94.6472 131.814 95.6944 130.705 96.4099 129.387C97.1254 128.068 97.4843 126.586 97.4513 125.086V28.9632C97.4513 26.4638 97.4753 23.9595 97.4513 21.4553C97.4636 20.954 97.3392 20.4588 97.0914 20.0228C96.8436 19.5868 96.4819 19.2264 96.0449 18.9804C95.6079 18.7343 95.1122 18.6119 94.611 18.6261C94.1097 18.6403 93.6217 18.7908 93.1994 19.0612C92.0311 19.7363 90.8724 20.4258 89.7136 21.1058L73.654 30.5529L54.9321 41.5274C51.6283 43.4666 48.2765 45.3915 44.987 47.3451C43.8796 47.9967 42.9639 48.9292 42.3325 50.0483C41.7011 51.1674 41.3763 52.4333 41.3911 53.7182C41.3911 54.5801 41.3911 55.4419 41.3911 56.3038V158.403C41.3911 158.565 41.3911 158.733 41.3911 158.881C41.3963 159.31 41.5014 159.731 41.6982 160.111C41.895 160.491 42.1779 160.821 42.5244 161.072C42.8709 161.324 43.2714 161.491 43.694 161.56C44.1166 161.63 44.5495 161.599 44.9583 161.472C45.8633 161.17 46.7156 160.49 47.5296 160.002L50.3067 158.331L56.5314 154.606C65.5843 149.179 74.6451 143.762 83.714 138.354L93.4005 132.575C93.6495 132.431 93.4101 132.015 93.1468 132.173Z" fill="#EBEBEB"/>
<path d="M45.0298 47.5845L93.496 19.1953C93.8723 18.9757 94.2999 18.8592 94.7357 18.8574C95.1714 18.8557 95.5999 18.9687 95.978 19.1852C96.3562 19.4017 96.6706 19.714 96.8897 20.0907C97.1088 20.4674 97.2248 20.8951 97.226 21.3308V25.9036L41.6445 57.9845V53.5219C41.6422 52.323 41.9534 51.1443 42.5472 50.1028C43.141 49.0613 43.9969 48.1932 45.0298 47.5845Z" fill="#EBEBEB"/>
<path d="M78.3293 72.5106C83.244 63.9981 83.2441 54.7971 78.3294 51.9596C73.4147 49.1221 65.4464 53.7226 60.5317 62.2351C55.617 70.7477 55.617 79.9487 60.5316 82.7862C65.4463 85.6237 73.4146 81.0231 78.3293 72.5106Z" fill="#58E5FF"/>
<path opacity="0.5" d="M78.3293 72.5106C83.244 63.9981 83.2441 54.7971 78.3294 51.9596C73.4147 49.1221 65.4464 53.7226 60.5317 62.2351C55.617 70.7477 55.617 79.9487 60.5316 82.7862C65.4463 85.6237 73.4146 81.0231 78.3293 72.5106Z" fill="white"/>
<path d="M67.1705 67.4276C67.0963 67.4276 67.0228 67.413 66.9543 67.3846C66.8857 67.3562 66.8234 67.3146 66.771 67.2621C66.7185 67.2097 66.6769 67.1474 66.6485 67.0788C66.6201 67.0103 66.6055 66.9368 66.6055 66.8626V63.1422C66.6469 62.2595 66.8988 61.3995 67.3403 60.634C67.7817 59.8685 68.3999 59.2197 69.1432 58.7418C69.4441 58.4939 69.8135 58.3437 70.202 58.3113C70.5905 58.2789 70.9797 58.3659 71.3175 58.5605C71.6553 58.7552 71.9256 59.0483 72.0924 59.4007C72.2591 59.7531 72.3144 60.148 72.2508 60.5326V64.2578C72.2508 64.4077 72.1912 64.5514 72.0853 64.6574C71.9793 64.7633 71.8356 64.8228 71.6857 64.8228C71.5359 64.8228 71.3922 64.7633 71.2862 64.6574C71.1803 64.5514 71.1207 64.4077 71.1207 64.2578V60.5135C71.1955 60.3264 71.2 60.1185 71.1332 59.9284C71.0665 59.7382 70.9332 59.5787 70.7579 59.4794C70.5825 59.3801 70.3772 59.3476 70.1798 59.3881C69.9824 59.4285 69.8064 59.5392 69.6843 59.6995C69.1144 60.0801 68.64 60.587 68.2979 61.1807C67.9557 61.7745 67.7551 62.4391 67.7115 63.123V66.8435C67.7167 66.9925 67.6628 67.1376 67.5614 67.247C67.46 67.3565 67.3195 67.4214 67.1705 67.4276Z" fill="#37474F"/>
<path d="M73.9909 61.8595C73.8586 61.8047 73.7146 61.7843 73.5722 61.8002C73.4299 61.8161 73.2939 61.8678 73.1769 61.9505L65.6499 66.2982C65.3197 66.5054 65.0465 66.7918 64.855 67.1313C64.5539 67.6202 64.3886 68.1805 64.3762 68.7545V75.2713C64.3594 75.454 64.3842 75.6381 64.4489 75.8098C64.5136 75.9815 64.6165 76.1363 64.7497 76.2624C64.7905 76.2943 64.8356 76.3201 64.8838 76.3391C65.0113 76.3865 65.1483 76.4026 65.2833 76.3859C65.4183 76.3693 65.5474 76.3203 65.6595 76.2433L73.1769 71.8908C73.5691 71.611 73.89 71.2428 74.1137 70.8162C74.3375 70.3895 74.4578 69.9162 74.465 69.4345V62.9082C74.4914 62.7066 74.4611 62.5016 74.3773 62.3163C74.2936 62.131 74.1598 61.9728 73.9909 61.8595Z" fill="#58E5FF"/>
<path d="M70.3028 68.6522L71.0306 70.7398L68.4785 72.2098L69.1153 69.6338L69.2063 69.2699C68.7754 69.2699 68.4785 68.9491 68.4785 68.3649C68.4818 68.1271 68.5222 67.8912 68.5982 67.6658C68.797 67.0436 69.2047 66.5091 69.7522 66.1528C70.456 65.7458 71.0306 66.0761 71.0306 66.8901C70.9957 67.5432 70.7389 68.1648 70.3028 68.6522Z" fill="#455A64"/>
<path d="M69.0958 69.6105L69.1868 69.2466C68.7559 69.2466 68.459 68.9258 68.459 68.3417C68.4622 68.1038 68.5026 67.8679 68.5787 67.6426L70.3024 68.6529L71.0303 70.7405L69.0958 69.6105Z" fill="#37474F"/>
<path d="M88.0204 91.4743L50.864 112.911C49.327 113.797 48.082 112.854 48.082 110.809V105.183C48.082 103.134 49.327 100.754 50.864 99.868L88.0204 78.4313C89.5574 77.5454 90.8023 78.4839 90.8023 80.5333V86.1594C90.7784 88.2088 89.5335 90.5837 88.0204 91.4743Z" fill="#58E5FF"/>
<path d="M57.5405 99.3594H56.8223V105.311H57.5405V99.3594Z" fill="#FAFAFA"/>
<path d="M59.8948 101.061L54.7168 104.037L55.0759 104.662L60.2539 101.686L59.8948 101.061Z" fill="#FAFAFA"/>
<path d="M55.5388 100.98L55.1797 101.602L58.8246 103.706L59.1837 103.084L55.5388 100.98Z" fill="#FAFAFA"/>
<path d="M59.2029 98.6693L55.5566 105.014L56.1815 105.373L59.8277 99.0284L59.2029 98.6693Z" fill="#FAFAFA"/>
<path d="M69.7866 92.6953H69.0684V98.647H69.7866V92.6953Z" fill="#FAFAFA"/>
<path d="M71.8204 93.8816L66.666 96.8574L67.0251 97.4794L72.1795 94.5036L71.8204 93.8816Z" fill="#FAFAFA"/>
<path d="M67.7849 94.3116L67.4258 94.9336L71.0707 97.038L71.4299 96.416L67.7849 94.3116Z" fill="#FAFAFA"/>
<path d="M71.4216 91.9505L67.7754 98.2949L68.4003 98.654L72.0465 92.3096L71.4216 91.9505Z" fill="#FAFAFA"/>
<path d="M82.0288 86.0254H81.3105V91.9771H82.0288V86.0254Z" fill="#FAFAFA"/>
<path d="M84.4807 87.6687L79.3027 90.6445L79.6618 91.2694L84.8399 88.2935L84.4807 87.6687Z" fill="#FAFAFA"/>
<path d="M80.029 87.6436L79.6699 88.2656L83.3149 90.37L83.674 89.748L80.029 87.6436Z" fill="#FAFAFA"/>
<path d="M83.1814 85.6592L79.5352 91.9746L80.1572 92.3337L83.8034 86.0183L83.1814 85.6592Z" fill="#FAFAFA"/>
<path d="M89.0978 99.2213C89.5766 99.2213 89.8208 99.9635 89.8208 100.701V106.327C89.8208 108.036 88.7626 110.091 87.5176 110.814L50.3852 132.25C50.1967 132.371 49.981 132.441 49.7579 132.456C49.2791 132.456 49.0397 131.714 49.0397 130.977V125.351C49.0397 123.641 50.0931 121.587 51.3428 120.864L88.4992 99.4272C88.686 99.3072 88.9002 99.2364 89.1217 99.2213M89.1217 98.2637C88.7317 98.278 88.3522 98.3935 88.0204 98.5989L50.864 120.036C49.327 120.921 48.082 123.301 48.082 125.351V130.977C48.082 132.499 48.7715 133.414 49.7579 133.414C50.1495 133.4 50.5307 133.285 50.864 133.079L88.0204 111.642C89.5574 110.756 90.8023 108.376 90.8023 106.327V100.701C90.8023 99.1782 90.1081 98.2637 89.1217 98.2637Z" fill="#58E5FF"/>
<path d="M72.0103 115.117V116.438L68.6985 118.341V117.02L72.0103 115.117ZM69.4504 115.068L70.9756 114.192V120.105C70.9756 120.267 70.9971 120.382 71.0401 120.448C71.083 120.511 71.1427 120.539 71.2191 120.531C71.2978 120.521 71.3885 120.487 71.4912 120.428C71.5628 120.387 71.6344 120.339 71.706 120.284C71.7776 120.226 71.8325 120.182 71.8707 120.152L72.1106 121.323C72.0342 121.395 71.9268 121.488 71.7883 121.603C71.6499 121.722 71.4816 121.842 71.2835 121.964C70.9159 122.192 70.5937 122.32 70.3168 122.35C70.0423 122.378 69.8287 122.3 69.676 122.115C69.5232 121.931 69.448 121.63 69.4504 121.213V115.068ZM71.5914 135.824C71.0257 136.149 70.5388 136.297 70.1307 136.267C69.7249 136.233 69.4122 136.036 69.1926 135.675C68.973 135.311 68.8632 134.794 68.8632 134.125C68.8632 133.473 68.973 132.837 69.1926 132.218C69.4122 131.599 69.7213 131.038 70.1199 130.533C70.5209 130.028 70.9911 129.62 71.5306 129.31C71.8934 129.101 72.2311 128.974 72.5438 128.93C72.8588 128.881 73.1333 128.923 73.3672 129.055C73.6035 129.186 73.7873 129.417 73.9186 129.746C74.0499 130.072 74.1155 130.505 74.1155 131.045V131.528L69.4719 134.197V133.107L72.6798 131.263C72.6798 131.01 72.6321 130.813 72.5366 130.672C72.4411 130.532 72.3087 130.455 72.1392 130.442C71.9721 130.425 71.7776 130.481 71.5556 130.608C71.3241 130.741 71.1188 130.921 70.9398 131.148C70.7632 131.371 70.6247 131.614 70.5245 131.878C70.4242 132.14 70.3729 132.396 70.3705 132.648V133.685C70.3705 133.998 70.4207 134.241 70.5209 134.412C70.6235 134.581 70.768 134.674 70.9541 134.691C71.1403 134.708 71.3611 134.643 71.6165 134.496C71.7859 134.399 71.9411 134.282 72.0819 134.146C72.2227 134.01 72.3433 133.858 72.4435 133.691C72.5438 133.523 72.6202 133.344 72.6727 133.154L74.0833 132.451C74.0117 132.883 73.8649 133.309 73.6429 133.728C73.4233 134.143 73.1393 134.532 72.7908 134.895C72.4447 135.254 72.0449 135.563 71.5914 135.824ZM69.0852 151.14V144.798L70.5639 143.948V145.054L70.6212 145.022C70.7214 144.57 70.8897 144.176 71.126 143.839C71.3623 143.5 71.6344 143.242 71.9423 143.065C72.0187 143.021 72.101 142.979 72.1893 142.939C72.2776 142.9 72.3552 142.87 72.422 142.851V144.412C72.3504 144.428 72.2514 144.463 72.1249 144.517C71.9984 144.57 71.8826 144.627 71.7776 144.687C71.5532 144.816 71.3527 144.988 71.1761 145.202C71.0019 145.413 70.8634 145.646 70.7608 145.903C70.6605 146.159 70.6104 146.417 70.6104 146.675V150.264L69.0852 151.14Z" fill="#58E5FF"/>
<path d="M143.746 35.2869C143.768 35.6658 143.88 36.034 144.072 36.3611C144.265 36.6883 144.532 36.9651 144.852 37.1686C145.465 37.5134 145.958 37.2309 145.958 36.5414C145.936 36.1625 145.824 35.7943 145.632 35.4671C145.44 35.1399 145.172 34.8632 144.852 34.6596C144.244 34.3149 143.746 34.5926 143.746 35.2869Z" fill="#455A64"/>
<path d="M128.916 39.7454C127.943 39.7129 126.994 39.4292 126.163 38.9218L122.653 36.9347C122.624 36.9203 122.598 36.9001 122.577 36.8753C122.556 36.8506 122.54 36.8218 122.53 36.7907C122.521 36.7596 122.517 36.7269 122.521 36.6945C122.524 36.6621 122.534 36.6308 122.55 36.6025C122.566 36.5741 122.588 36.5493 122.614 36.5296C122.64 36.5099 122.669 36.4956 122.701 36.4877C122.732 36.4798 122.765 36.4784 122.797 36.4837C122.83 36.4889 122.86 36.5006 122.888 36.5181L126.397 38.5052C127.915 39.3623 129.318 39.5012 130.357 38.8979C131.396 38.2945 131.937 37.0544 131.937 35.3737C131.937 33.5207 132.584 32.1225 133.752 31.4378C134.92 30.7531 136.524 30.8824 138.191 31.8257L143.865 35.0386C143.919 35.0706 143.959 35.1224 143.976 35.1831C143.993 35.2438 143.986 35.3086 143.956 35.3642C143.925 35.4193 143.873 35.4599 143.812 35.4769C143.751 35.494 143.685 35.4861 143.63 35.4551L137.956 32.2662C136.443 31.4091 135.035 31.2702 133.996 31.8783C132.957 32.4864 132.416 33.7218 132.416 35.3977C132.416 37.2555 131.77 38.6536 130.601 39.3336C130.086 39.6181 129.504 39.7602 128.916 39.7454Z" fill="#455A64"/>
<path d="M121.203 35.8609C121.22 36.1671 121.31 36.4648 121.466 36.729C121.622 36.9931 121.839 37.2159 122.099 37.3788C122.577 37.6613 122.994 37.4315 122.994 36.8712C122.977 36.565 122.887 36.2673 122.731 36.0032C122.575 35.7391 122.358 35.5162 122.099 35.3534C121.605 35.0709 121.203 35.3007 121.203 35.8609Z" fill="#455A64"/>
<path d="M177.837 30.7718L154.375 17.4893C154.128 17.3085 153.83 17.2109 153.525 17.2109C153.219 17.2109 152.921 17.3085 152.675 17.4893L150.645 18.8875L152.028 20.5969V45.3184C152.028 47.0469 153.082 49.0532 154.375 49.8049L177.248 62.733L177.353 64.5717L179.489 63.1065C179.735 62.877 179.925 62.5941 180.045 62.2794C180.164 61.9648 180.21 61.6269 180.178 61.2918V35.2584C180.188 33.5298 179.134 31.5236 177.837 30.7718Z" fill="#58E5FF"/>
<path opacity="0.3" d="M177.837 30.7718L154.375 17.4893C154.128 17.3085 153.83 17.2109 153.525 17.2109C153.219 17.2109 152.921 17.3085 152.675 17.4893L150.645 18.8875L152.028 20.5969V45.3184C152.028 47.0469 153.082 49.0532 154.375 49.8049L177.248 62.733L177.353 64.5717L179.489 63.1065C179.735 62.877 179.925 62.5941 180.045 62.2794C180.164 61.9648 180.21 61.6269 180.178 61.2918V35.2584C180.188 33.5298 179.134 31.5236 177.837 30.7718Z" fill="black"/>
<path d="M175.847 64.4568L152.385 51.1743C151.088 50.4274 150.039 48.4163 150.039 46.6878V20.64C150.039 18.9066 151.088 18.1118 152.385 18.8636L175.847 32.146C177.145 32.893 178.194 34.904 178.194 36.6326V62.6852C178.194 64.4137 177.145 65.2085 175.847 64.4568Z" fill="#58E5FF"/>
<path d="M170.918 41.9133C170.864 41.9141 170.812 41.8971 170.77 41.865C170.727 41.8329 170.697 41.7875 170.683 41.7361C170.183 39.8888 169.41 38.1264 168.389 36.5074C168.355 36.4541 168.344 36.3893 168.357 36.3274C168.37 36.2654 168.408 36.2114 168.461 36.177C168.488 36.1597 168.517 36.1478 168.549 36.1423C168.58 36.1367 168.612 36.1376 168.643 36.1447C168.674 36.1519 168.703 36.1652 168.728 36.184C168.754 36.2027 168.775 36.2264 168.792 36.2536C169.84 37.9123 170.634 39.7182 171.147 41.6116C171.162 41.6732 171.154 41.7381 171.122 41.7933C171.091 41.8484 171.04 41.8896 170.98 41.9085L170.918 41.9133Z" fill="white"/>
<path d="M171.456 46.7828C171.392 46.7779 171.333 46.7481 171.291 46.6997C171.249 46.6513 171.227 46.5883 171.231 46.5243C171.231 46.2705 171.26 46.0024 171.26 45.7294C171.257 44.9108 171.185 44.0939 171.044 43.2875C171.034 43.224 171.049 43.1588 171.086 43.1062C171.123 43.0537 171.18 43.0181 171.243 43.0073C171.307 42.9965 171.372 43.0114 171.424 43.0487C171.477 43.086 171.512 43.1426 171.523 43.2061C171.67 44.0393 171.745 44.8834 171.748 45.7294C171.748 46.0119 171.748 46.2897 171.72 46.5578C171.717 46.5899 171.708 46.6212 171.694 46.6499C171.679 46.6786 171.659 46.7042 171.635 46.7251C171.61 46.746 171.582 46.7619 171.551 46.7718C171.521 46.7817 171.488 46.7855 171.456 46.7828Z" fill="white"/>
<path d="M156.808 38.8344C156.749 38.8346 156.692 38.8126 156.648 38.7726C156.605 38.7327 156.578 38.6778 156.573 38.619C156.535 38.2024 156.516 37.7858 156.516 37.3836C156.516 35.0613 157.143 33.1461 158.282 31.9825C158.304 31.9602 158.33 31.9425 158.359 31.9304C158.388 31.9183 158.419 31.9121 158.45 31.9121C158.481 31.9121 158.512 31.9183 158.541 31.9304C158.57 31.9425 158.596 31.9602 158.618 31.9825C158.64 32.0048 158.658 32.0313 158.67 32.0604C158.682 32.0896 158.688 32.1209 158.688 32.1525C158.688 32.1841 158.682 32.2154 158.67 32.2446C158.658 32.2738 158.64 32.3002 158.618 32.3225C157.569 33.395 156.99 35.1954 156.99 37.3884C156.99 37.7762 156.99 38.1785 157.042 38.5807C157.046 38.6119 157.043 38.6434 157.034 38.6735C157.024 38.7035 157.009 38.7314 156.989 38.7555C156.969 38.7796 156.944 38.7994 156.917 38.8138C156.889 38.8282 156.858 38.8368 156.827 38.8392L156.808 38.8344Z" fill="white"/>
<path d="M167.398 34.9615C167.363 34.9619 167.327 34.9544 167.295 34.9395C167.263 34.9245 167.234 34.9026 167.212 34.8753C166.324 33.7456 165.235 32.7909 163.999 32.0598C162.409 31.1596 160.915 30.9873 159.689 31.581C159.632 31.6072 159.567 31.6099 159.508 31.5884C159.449 31.5669 159.4 31.5229 159.373 31.4661C159.359 31.4375 159.352 31.4065 159.35 31.3748C159.348 31.3432 159.353 31.3115 159.364 31.2817C159.374 31.2518 159.391 31.2244 159.412 31.201C159.434 31.1776 159.459 31.1586 159.488 31.1453C160.867 30.5084 162.51 30.6665 164.243 31.6672C165.531 32.4293 166.667 33.4228 167.595 34.5976C167.634 34.6466 167.653 34.7093 167.647 34.772C167.64 34.8348 167.61 34.8926 167.561 34.9327C167.512 34.9613 167.454 34.9715 167.398 34.9615Z" fill="white"/>
<path d="M158.46 39.0217C158.398 39.0218 158.339 38.9978 158.294 38.955C158.249 38.9122 158.223 38.8537 158.221 38.7919C158.221 38.6434 158.221 38.495 158.221 38.3466C158.221 36.6468 158.637 35.2582 159.427 34.3341C159.447 34.3098 159.472 34.2897 159.499 34.2751C159.527 34.2605 159.558 34.2516 159.589 34.2489C159.62 34.2462 159.652 34.2498 159.681 34.2595C159.711 34.2692 159.739 34.2848 159.763 34.3053C159.811 34.347 159.841 34.4059 159.846 34.4695C159.851 34.533 159.832 34.5961 159.791 34.6453C159.078 35.4832 158.7 36.7617 158.7 38.3466C158.7 38.4854 158.7 38.6291 158.7 38.7679C158.701 38.7994 158.696 38.8308 158.685 38.8603C158.674 38.8898 158.658 38.917 158.636 38.9401C158.615 38.9632 158.589 38.9819 158.561 38.9951C158.532 39.0083 158.501 39.0157 158.47 39.0169L158.46 39.0217Z" fill="white"/>
<path d="M160.318 34.0904C160.265 34.0909 160.214 34.0741 160.172 34.0424C160.13 34.0108 160.099 33.9662 160.085 33.9155C160.071 33.8648 160.074 33.8108 160.093 33.7619C160.113 33.713 160.148 33.672 160.193 33.6451C160.807 33.2803 161.525 33.1319 162.233 33.2238C162.296 33.2298 162.354 33.2604 162.394 33.3088C162.434 33.3572 162.454 33.4195 162.449 33.4823C162.441 33.5454 162.41 33.6032 162.361 33.6435C162.312 33.6837 162.249 33.7032 162.185 33.6978C161.582 33.6259 160.972 33.7573 160.452 34.0713C160.41 34.089 160.364 34.0956 160.318 34.0904Z" fill="white"/>
<path d="M170.92 49.8611C170.872 49.8612 170.825 49.8472 170.785 49.8208C170.745 49.7944 170.713 49.7568 170.695 49.7127L170.417 49.0184C169.86 47.6758 169.566 46.239 169.55 44.7856C169.55 40.7252 167.06 36.028 164.001 34.2947C163.973 34.2793 163.949 34.2586 163.93 34.2338C163.911 34.2089 163.897 34.1805 163.889 34.1501C163.881 34.1198 163.879 34.0881 163.883 34.057C163.888 34.0259 163.898 33.996 163.914 33.9691C163.929 33.9413 163.95 33.9168 163.975 33.8971C163.999 33.8774 164.028 33.8629 164.058 33.8544C164.088 33.8459 164.12 33.8436 164.151 33.8477C164.183 33.8518 164.213 33.8621 164.24 33.8781C167.429 35.6881 170.029 40.5816 170.029 44.7665C170.041 46.1642 170.324 47.5464 170.862 48.8365L171.14 49.5308C171.152 49.5596 171.159 49.5907 171.159 49.6221C171.159 49.6536 171.153 49.6847 171.141 49.7137C171.129 49.7428 171.111 49.7691 171.089 49.7911C171.066 49.8131 171.04 49.8304 171.011 49.842C170.982 49.8548 170.951 49.8613 170.92 49.8611Z" fill="white"/>
<path d="M159.924 47.1086C159.875 47.1086 159.827 47.0934 159.786 47.0651C159.746 47.0368 159.716 46.9968 159.699 46.9506C158.925 44.6881 158.426 42.3411 158.21 39.9598C158.207 39.928 158.211 39.8959 158.221 39.8656C158.231 39.8352 158.247 39.8072 158.268 39.7831C158.289 39.759 158.314 39.7393 158.343 39.7253C158.372 39.7112 158.403 39.7031 158.435 39.7012C158.498 39.6997 158.559 39.7221 158.606 39.7639C158.653 39.8056 158.683 39.8637 158.689 39.9263C158.893 42.2625 159.375 44.5659 160.125 46.7878C160.136 46.8173 160.142 46.8488 160.141 46.8804C160.139 46.9119 160.132 46.943 160.119 46.9716C160.105 47.0002 160.086 47.0258 160.062 47.0469C160.039 47.068 160.011 47.0841 159.981 47.0942C159.963 47.1015 159.944 47.1064 159.924 47.1086Z" fill="white"/>
<path d="M169.512 51.4759C169.463 51.4769 169.415 51.4627 169.375 51.4352C169.334 51.4078 169.304 51.3684 169.287 51.3226L168.645 49.5989C167.998 47.9165 167.65 46.1341 167.616 44.3319V42.4501C167.616 40.214 166.012 37.4895 164.039 36.3739C163.12 35.852 162.267 35.761 161.645 36.1249C161.022 36.4888 160.687 37.2406 160.687 38.2604V39.9267C160.74 42.6336 161.281 45.3086 162.286 47.8225L163.076 49.8814C163.088 49.9109 163.094 49.9425 163.093 49.9742C163.092 50.0059 163.085 50.0371 163.072 50.066C163.059 50.095 163.041 50.1211 163.018 50.1428C162.994 50.1646 162.967 50.1815 162.938 50.1926C162.878 50.2144 162.813 50.2121 162.756 50.1861C162.698 50.1601 162.654 50.1126 162.631 50.0538L161.841 47.9949C160.821 45.4247 160.272 42.6916 160.223 39.9267V38.2652C160.223 37.0682 160.639 36.1632 161.405 35.7179C162.171 35.2726 163.201 35.354 164.278 35.9621C166.38 37.1544 168.109 40.0656 168.109 42.4549V44.3367C168.142 46.0819 168.481 47.8078 169.11 49.4361L169.746 51.1551C169.758 51.1843 169.763 51.2155 169.763 51.2468C169.762 51.2782 169.755 51.309 169.742 51.3376C169.729 51.3662 169.71 51.3919 169.687 51.4132C169.664 51.4344 169.637 51.4509 169.608 51.4615L169.512 51.4759Z" fill="white"/>
<path d="M167.398 52.1611C167.347 52.1615 167.297 52.1453 167.256 52.1152C167.214 52.085 167.184 52.0424 167.168 51.9936L166.833 50.8635C166.223 48.8801 165.9 46.8193 165.875 44.7442V41.8426C165.838 41.1853 165.645 40.5463 165.312 39.9785C164.979 39.4106 164.516 38.9302 163.96 38.577C163.787 38.4501 163.583 38.3709 163.37 38.3474C163.156 38.3239 162.941 38.3568 162.744 38.4429C162.576 38.565 162.443 38.7295 162.359 38.9195C162.275 39.1096 162.242 39.3185 162.265 39.5251C162.265 42.7619 163.251 46.4919 165.037 50.0304L165.713 51.3663C165.727 51.3946 165.735 51.4254 165.737 51.457C165.74 51.4885 165.736 51.5202 165.726 51.5502C165.716 51.5802 165.7 51.608 165.679 51.6319C165.658 51.6558 165.633 51.6754 165.605 51.6895C165.577 51.7037 165.546 51.7121 165.514 51.7143C165.483 51.7166 165.451 51.7126 165.421 51.7026C165.391 51.6926 165.363 51.6768 165.339 51.656C165.315 51.6353 165.296 51.6101 165.282 51.5818L164.611 50.2459C162.787 46.6403 161.786 42.8337 161.786 39.5251C161.759 39.2347 161.811 38.9424 161.936 38.6788C162.06 38.4151 162.253 38.1898 162.495 38.0264C162.763 37.8969 163.061 37.8411 163.358 37.8646C163.655 37.8882 163.941 37.9903 164.185 38.1604C164.813 38.5581 165.337 39.0994 165.714 39.7397C166.091 40.3799 166.311 41.1007 166.354 41.8426V44.7538C166.376 46.7834 166.69 48.7993 167.288 50.739L167.623 51.8643C167.633 51.8944 167.636 51.9262 167.633 51.9577C167.63 51.9892 167.62 52.0197 167.605 52.0474C167.59 52.0751 167.569 52.0995 167.544 52.119C167.519 52.1386 167.491 52.1529 167.46 52.1611C167.44 52.1651 167.419 52.1651 167.398 52.1611Z" fill="white"/>
<path d="M164.714 47.1088C164.66 47.1082 164.607 47.0895 164.565 47.0557C164.522 47.0219 164.492 46.9749 164.48 46.9221L164.259 45.8974C164.049 44.9122 163.943 43.9075 163.943 42.9V40.2043C163.943 40.1408 163.969 40.0799 164.013 40.035C164.058 39.9901 164.119 39.9648 164.183 39.9648C164.246 39.9648 164.307 39.9901 164.352 40.035C164.397 40.0799 164.422 40.1408 164.422 40.2043V42.9C164.425 43.8657 164.528 44.8284 164.729 45.7729L164.949 46.7976C164.956 46.8281 164.957 46.8597 164.951 46.8906C164.946 46.9214 164.934 46.9509 164.917 46.9772C164.901 47.0036 164.878 47.0262 164.853 47.0439C164.827 47.0616 164.798 47.0739 164.767 47.0801L164.714 47.1088Z" fill="white"/>
<path d="M157.33 41.914C157.271 41.9132 157.214 41.891 157.17 41.8513C157.126 41.8117 157.098 41.7574 157.091 41.6985L156.952 40.3004C156.947 40.2371 156.966 40.1741 157.006 40.125C157.047 40.0758 157.104 40.0442 157.168 40.037C157.199 40.033 157.231 40.0355 157.262 40.0443C157.292 40.0531 157.321 40.068 157.345 40.0882C157.37 40.1084 157.39 40.1333 157.405 40.1616C157.42 40.1898 157.429 40.2207 157.431 40.2525L157.57 41.6506C157.573 41.6821 157.57 41.7139 157.561 41.7442C157.552 41.7745 157.537 41.8028 157.517 41.8272C157.497 41.8517 157.472 41.872 157.444 41.8869C157.416 41.9018 157.386 41.911 157.354 41.914H157.33Z" fill="white"/>
<path d="M177.837 75.1379L154.375 61.8507C154.128 61.6698 153.83 61.5723 153.525 61.5723C153.219 61.5723 152.921 61.6698 152.675 61.8507L150.645 63.2488L152.028 64.9582V89.6797C152.028 91.4082 153.082 93.4145 154.375 94.1662L177.248 107.094L177.353 108.933L179.489 107.473C179.735 107.242 179.925 106.958 180.045 106.643C180.164 106.328 180.21 105.989 180.178 105.653V79.6053C180.188 77.8911 179.134 75.8849 177.837 75.1379Z" fill="#58E5FF"/>
<path opacity="0.3" d="M177.837 75.1379L154.375 61.8507C154.128 61.6698 153.83 61.5723 153.525 61.5723C153.219 61.5723 152.921 61.6698 152.675 61.8507L150.645 63.2488L152.028 64.9582V89.6797C152.028 91.4082 153.082 93.4145 154.375 94.1662L177.248 107.094L177.353 108.933L179.489 107.473C179.735 107.242 179.925 106.958 180.045 106.643C180.164 106.328 180.21 105.989 180.178 105.653V79.6053C180.188 77.8911 179.134 75.8849 177.837 75.1379Z" fill="black"/>
<path d="M175.847 108.817L152.385 95.5349C151.088 94.7879 150.039 92.7817 150.039 91.0483V65.0005C150.039 63.272 151.088 62.4771 152.385 63.2241L175.847 76.5066C177.145 77.2583 178.194 79.2646 178.194 80.9931V107.046C178.194 108.774 177.145 109.569 175.847 108.817Z" fill="#58E5FF"/>
<path d="M155.267 72.2701C155.203 72.2701 155.142 72.2449 155.097 72.2C155.053 72.1551 155.027 72.0942 155.027 72.0307V70.4171C155.026 70.2568 155.067 70.0991 155.147 69.9602C155.227 69.8214 155.343 69.7063 155.482 69.6271C155.627 69.5401 155.792 69.4941 155.961 69.4941C156.13 69.4941 156.295 69.5401 156.44 69.6271L158.13 70.5847C158.186 70.6158 158.227 70.6678 158.245 70.7294C158.262 70.7909 158.255 70.8568 158.223 70.9127C158.192 70.9686 158.14 71.0098 158.079 71.0273C158.017 71.0448 157.951 71.0372 157.896 71.0061L156.2 70.0484C156.128 70.0064 156.045 69.9843 155.961 69.9843C155.877 69.9843 155.794 70.0064 155.722 70.0484C155.655 70.0855 155.6 70.1398 155.563 70.2055C155.525 70.2712 155.505 70.346 155.506 70.4219V72.0355C155.505 72.0982 155.479 72.1579 155.434 72.2017C155.39 72.2456 155.329 72.2702 155.267 72.2701Z" fill="white"/>
<path d="M157.986 94.4725C157.946 94.4721 157.907 94.4623 157.871 94.4438L156.291 93.5484C155.913 93.3309 155.6 93.0176 155.382 92.6401C155.164 92.2626 155.05 91.8343 155.051 91.3985V89.9093C155.051 89.8458 155.076 89.7849 155.121 89.74C155.166 89.6951 155.227 89.6699 155.29 89.6699C155.354 89.6699 155.415 89.6951 155.459 89.74C155.504 89.7849 155.53 89.8458 155.53 89.9093V91.3985C155.531 91.7518 155.626 92.0984 155.805 92.4029C155.985 92.7074 156.241 92.9589 156.549 93.1318L158.13 94.0272C158.175 94.0538 158.21 94.0945 158.229 94.1429C158.249 94.1913 158.252 94.2448 158.239 94.2952C158.225 94.3457 158.195 94.3903 158.154 94.4223C158.113 94.4543 158.062 94.472 158.01 94.4725H157.986Z" fill="white"/>
<path d="M172.289 102.473C172.121 102.476 171.955 102.433 171.81 102.348L170.12 101.391C170.064 101.359 170.024 101.308 170.007 101.247C169.99 101.185 169.998 101.12 170.029 101.065C170.061 101.011 170.113 100.971 170.173 100.954C170.234 100.937 170.299 100.944 170.354 100.974L172.049 101.932C172.122 101.974 172.205 101.996 172.289 101.996C172.373 101.996 172.455 101.974 172.528 101.932C172.594 101.895 172.649 101.84 172.687 101.774C172.725 101.709 172.745 101.634 172.744 101.558V99.9445C172.744 99.881 172.769 99.8201 172.814 99.7752C172.859 99.7303 172.92 99.7051 172.983 99.7051C173.047 99.7051 173.107 99.7303 173.152 99.7752C173.197 99.8201 173.222 99.881 173.222 99.9445V101.558C173.223 101.718 173.182 101.875 173.102 102.013C173.022 102.151 172.906 102.265 172.768 102.343C172.623 102.429 172.457 102.474 172.289 102.473Z" fill="white"/>
<path d="M172.973 82.3007C172.91 82.3007 172.849 82.2755 172.804 82.2306C172.759 82.1857 172.734 82.1248 172.734 82.0613V80.5722C172.732 80.2195 172.637 79.8734 172.458 79.5697C172.279 79.2659 172.022 79.0153 171.714 78.8436L170.134 77.9482C170.078 77.9161 170.038 77.8635 170.02 77.8017C170.003 77.7399 170.011 77.6738 170.043 77.6178C170.058 77.5904 170.079 77.5664 170.104 77.5472C170.128 77.5279 170.157 77.5139 170.187 77.5059C170.218 77.4978 170.249 77.496 170.28 77.5004C170.311 77.5048 170.341 77.5154 170.368 77.5316L171.948 78.427C172.33 78.6411 172.648 78.9523 172.87 79.3291C173.092 79.7059 173.21 80.1348 173.212 80.5722V82.0613C173.212 82.1248 173.187 82.1857 173.142 82.2306C173.097 82.2755 173.037 82.3007 172.973 82.3007Z" fill="white"/>
<path d="M157.385 80.3245C157.439 83.0434 157.828 85.7452 158.544 88.3687C160.364 95.2349 167.541 99.4533 169.514 94.804C170.441 92.5166 170.895 90.0654 170.85 87.5978C170.85 83.3841 167.833 78.2608 164.118 76.154C160.316 74.0041 157.333 76.0007 157.385 80.3245Z" fill="white"/>
<path d="M163.88 84.1582V88.6687L161.922 87.2035L163.88 84.1582Z" fill="#E0E0E0"/>
<path d="M160.236 81.4638C160.249 81.6849 160.314 81.8998 160.425 82.0912C160.537 82.2825 160.692 82.4449 160.878 82.565C161.237 82.7661 161.524 82.6033 161.524 82.1964C161.512 81.9753 161.447 81.7604 161.334 81.5697C161.222 81.3789 161.065 81.2178 160.878 81.0999C160.524 80.8988 160.236 81.0615 160.236 81.4638Z" fill="#E0E0E0"/>
<path d="M166.232 84.9001C166.246 85.1209 166.312 85.3353 166.424 85.5258C166.536 85.7164 166.692 85.8777 166.879 85.9966C167.238 86.1977 167.525 86.0349 167.525 85.6327C167.513 85.411 167.448 85.1954 167.335 85.0039C167.223 84.8124 167.066 84.6504 166.879 84.5314C166.544 84.3303 166.232 84.4931 166.232 84.9001Z" fill="#E0E0E0"/>
<path d="M163.234 90.8765L165.423 90.5078C165.423 90.5078 164.958 92.8445 163.234 90.8765Z" fill="#E0E0E0"/>
<path d="M143.746 77.1386C143.769 77.5166 143.881 77.8839 144.073 78.2102C144.266 78.5365 144.532 78.8125 144.852 79.0156C145.465 79.3651 145.958 79.0826 145.958 78.3931C145.936 78.0142 145.824 77.646 145.632 77.3188C145.44 76.9916 145.172 76.7149 144.852 76.5113C144.244 76.1618 143.746 76.4443 143.746 77.1386Z" fill="#455A64"/>
<path d="M143.79 77.6607C143.748 77.6604 143.707 77.6505 143.67 77.632L138.001 74.3999C134.683 72.523 131.982 67.9311 131.982 64.1723C131.982 60.562 129.392 56.1617 126.208 54.3565L122.655 52.3455C122.6 52.3143 122.559 52.2625 122.542 52.2015C122.525 52.1405 122.533 52.0751 122.564 52.0199C122.579 51.9921 122.599 51.9676 122.624 51.9479C122.649 51.9282 122.677 51.9136 122.707 51.9051C122.738 51.8966 122.769 51.8944 122.801 51.8985C122.832 51.9025 122.862 51.9129 122.889 51.9289L126.442 53.94C129.761 55.8217 132.461 60.4088 132.461 64.1723C132.461 67.7779 135.051 72.1782 138.236 73.9834L143.91 77.201C143.965 77.2322 144.005 77.284 144.022 77.345C144.039 77.4061 144.032 77.4714 144.001 77.5266C143.98 77.5655 143.95 77.5984 143.913 77.622C143.876 77.6455 143.834 77.6589 143.79 77.6607Z" fill="#455A64"/>
<path d="M121.203 51.1967C121.222 51.5032 121.312 51.801 121.468 52.0656C121.624 52.3303 121.84 52.5543 122.099 52.7194C122.577 52.9971 122.994 52.772 122.994 52.2118C122.976 51.9053 122.885 51.6076 122.729 51.3429C122.574 51.0783 122.357 50.8542 122.099 50.6892C121.605 50.4115 121.203 50.6365 121.203 51.1967Z" fill="#455A64"/>
<path d="M127.94 95.0858C127.94 95.0858 131.431 94.8512 133.408 99.7016C134.639 102.718 136.137 107.363 137.095 110.475C137.386 111.415 137.393 112.42 137.115 113.363C136.837 114.307 136.287 115.148 135.534 115.78L129.448 120.889L127.279 116.93C128.544 115.242 129.935 113.652 131.44 112.175L127.279 99.7016L127.94 95.0858Z" fill="#FFBE9D"/>
<path d="M129.548 109.899C129.548 109.899 135.093 110.632 136.477 106.356C136.477 106.356 134.083 100.098 133.01 98.0197C131.938 95.9416 129.697 94.4286 127.94 95.0846C126.182 95.7405 129.548 109.899 129.548 109.899Z" fill="#58E5FF"/>
<path opacity="0.4" d="M129.548 109.899C129.548 109.899 135.093 110.632 136.477 106.356C136.477 106.356 134.083 100.098 133.01 98.0197C131.938 95.9416 129.697 94.4286 127.94 95.0846C126.182 95.7405 129.548 109.899 129.548 109.899Z" fill="white"/>
<path d="M125.842 166.047C125.842 166.047 123.209 163.791 122.184 163.686C121.16 163.581 119.388 165.333 120.887 168.374C121.303 169.221 122.998 170.136 124.056 171.759C125.115 173.382 126.063 174.603 127.686 174.378C129.309 174.153 129.52 173.243 129.414 172.185C129.277 171.217 129.084 170.258 128.835 169.312L125.842 166.047Z" fill="#37474F"/>
<path d="M127.759 173.893C126.088 174.123 125.107 172.864 124.015 171.193C122.923 169.522 121.18 168.574 120.749 167.702C120.577 167.353 120.436 166.989 120.328 166.615C120.408 167.228 120.592 167.822 120.874 168.373C121.291 169.22 122.986 170.135 124.044 171.758C125.102 173.381 126.05 174.602 127.673 174.377C128.918 174.209 129.33 173.63 129.407 172.893C129.196 173.391 128.741 173.764 127.759 173.893Z" fill="#263238"/>
<path d="M124.445 168.948C124.402 168.949 124.361 168.937 124.325 168.915C124.295 168.899 124.269 168.878 124.248 168.852C124.226 168.826 124.21 168.796 124.201 168.764C124.191 168.732 124.187 168.699 124.191 168.665C124.194 168.632 124.204 168.6 124.22 168.57C124.756 167.62 125.646 166.922 126.695 166.626C126.76 166.616 126.826 166.631 126.88 166.668C126.934 166.705 126.972 166.76 126.986 166.824C127.001 166.888 126.991 166.954 126.958 167.011C126.925 167.068 126.873 167.11 126.81 167.129C125.907 167.392 125.14 167.994 124.67 168.809C124.648 168.851 124.616 168.885 124.576 168.91C124.537 168.934 124.491 168.948 124.445 168.948Z" fill="#EBEBEB"/>
<path d="M123.447 168.038C123.405 168.037 123.364 168.027 123.327 168.009C123.297 167.993 123.271 167.972 123.25 167.946C123.228 167.92 123.212 167.89 123.202 167.858C123.193 167.826 123.189 167.793 123.193 167.759C123.196 167.726 123.206 167.694 123.222 167.664C123.487 167.193 123.842 166.778 124.268 166.445C124.694 166.111 125.181 165.865 125.702 165.72C125.736 165.702 125.774 165.692 125.813 165.691C125.852 165.691 125.89 165.699 125.925 165.715C125.961 165.731 125.992 165.755 126.016 165.785C126.04 165.815 126.058 165.851 126.066 165.888C126.075 165.926 126.075 165.965 126.066 166.003C126.057 166.041 126.04 166.076 126.015 166.106C125.991 166.136 125.96 166.16 125.925 166.176C125.889 166.192 125.851 166.2 125.812 166.199C124.909 166.466 124.143 167.069 123.672 167.884C123.653 167.929 123.622 167.967 123.582 167.994C123.542 168.022 123.495 168.037 123.447 168.038Z" fill="#EBEBEB"/>
<path d="M122.334 167.133C122.292 167.133 122.251 167.123 122.214 167.104C122.154 167.072 122.109 167.017 122.089 166.951C122.069 166.886 122.076 166.815 122.109 166.755C122.646 165.806 123.538 165.108 124.589 164.815C124.622 164.808 124.656 164.807 124.689 164.812C124.722 164.817 124.754 164.829 124.782 164.847C124.811 164.865 124.835 164.888 124.855 164.916C124.874 164.943 124.888 164.974 124.895 165.007C124.91 165.074 124.897 165.143 124.86 165.201C124.824 165.258 124.766 165.299 124.699 165.313C123.796 165.58 123.03 166.183 122.559 166.999C122.537 167.04 122.505 167.074 122.465 167.098C122.426 167.122 122.38 167.134 122.334 167.133Z" fill="#EBEBEB"/>
<path d="M111.828 173.444C111.828 173.444 108.299 172.3 107.245 172.616C106.192 172.932 105.162 175.393 107.892 177.782C108.648 178.443 110.698 178.654 112.412 179.822C114.126 180.99 115.562 181.8 117.076 180.914C118.589 180.028 118.464 178.998 118.191 177.907C117.851 176.499 117.574 175.474 117.574 175.474L111.828 173.444Z" fill="#37474F"/>
<path d="M116.96 180.401C115.404 181.315 113.915 180.477 112.172 179.271C110.429 178.064 108.294 177.834 107.513 177.169C107.197 176.894 106.907 176.591 106.646 176.264C106.977 176.839 107.405 177.352 107.911 177.782C108.667 178.442 110.716 178.653 112.431 179.821C114.145 180.99 115.581 181.799 117.094 180.913C118.248 180.238 118.421 179.477 118.196 178.734C118.181 179.314 117.856 179.874 116.96 180.401Z" fill="#263238"/>
<path d="M110.999 176.704H110.975C110.907 176.697 110.845 176.663 110.802 176.61C110.759 176.558 110.739 176.49 110.745 176.422C110.884 175.269 111.475 174.219 112.388 173.501C112.415 173.482 112.445 173.468 112.478 173.46C112.51 173.452 112.544 173.451 112.577 173.456C112.61 173.462 112.641 173.473 112.67 173.491C112.698 173.509 112.723 173.531 112.742 173.559C112.782 173.614 112.798 173.683 112.787 173.75C112.776 173.817 112.74 173.877 112.685 173.918C111.895 174.554 111.381 175.469 111.248 176.475C111.242 176.537 111.214 176.595 111.168 176.637C111.122 176.68 111.062 176.703 110.999 176.704Z" fill="#EBEBEB"/>
<path d="M112.434 177.178C112.367 177.17 112.305 177.137 112.263 177.086C112.22 177.034 112.199 176.967 112.204 176.9C112.345 175.747 112.935 174.695 113.846 173.974C113.902 173.935 113.971 173.92 114.039 173.932C114.106 173.943 114.166 173.981 114.205 174.037C114.225 174.064 114.238 174.095 114.246 174.128C114.253 174.16 114.254 174.194 114.248 174.227C114.242 174.26 114.23 174.291 114.212 174.319C114.194 174.348 114.171 174.372 114.143 174.391C113.352 175.026 112.837 175.942 112.707 176.948C112.701 177.014 112.669 177.076 112.617 177.119C112.566 177.162 112.5 177.183 112.434 177.178Z" fill="#EBEBEB"/>
<path d="M109.639 176.212H109.615C109.548 176.204 109.487 176.171 109.444 176.12C109.401 176.068 109.38 176.001 109.386 175.934C109.524 174.78 110.114 173.727 111.028 173.008C111.083 172.969 111.152 172.953 111.219 172.964C111.286 172.976 111.345 173.013 111.385 173.068C111.424 173.124 111.44 173.192 111.429 173.259C111.417 173.326 111.38 173.386 111.325 173.425C110.534 174.06 110.019 174.976 109.888 175.982C109.882 176.044 109.854 176.102 109.808 176.144C109.762 176.187 109.702 176.211 109.639 176.212Z" fill="#EBEBEB"/>
<path d="M129.002 166.718C129.318 163.222 130.003 157.745 130.29 155.183C130.677 151.945 130.583 148.668 130.012 145.458C129.865 144.701 129.828 143.927 129.902 143.16C130.596 136.198 131.046 124.912 130.663 122.432L120.891 124.5C120.891 124.5 122.088 140.335 122.614 145.602C123.141 150.869 125.104 166.766 125.104 166.766C125.688 167.139 126.368 167.333 127.06 167.325C127.753 167.316 128.428 167.105 129.002 166.718Z" fill="#455A64"/>
<path d="M127.595 170.313C127.865 170.25 128.117 170.127 128.333 169.953C128.549 169.778 128.722 169.558 128.84 169.307C128.84 168.757 128.903 167.837 129.003 166.717C128.429 167.104 127.754 167.315 127.061 167.324C126.369 167.332 125.689 167.138 125.105 166.765L125.45 169.705C125.737 169.963 126.08 170.153 126.452 170.258C126.824 170.363 127.215 170.382 127.595 170.313Z" fill="#FFBE9D"/>
<path d="M118.011 172.864C118.408 167.568 119.179 157.316 119.28 155.703C119.355 153.923 119.242 152.139 118.945 150.383C118.772 149.433 118.772 148.46 118.945 147.51L123.254 123.674L111.441 123.502L110.671 148.472C110.662 148.792 110.675 149.112 110.709 149.43L113.213 172.705C113.213 172.705 115.655 174.76 118.011 172.864Z" fill="#455A64"/>
<path d="M116.034 177.23C116.402 177.188 116.752 177.054 117.055 176.842C117.358 176.629 117.603 176.345 117.768 176.014L118.007 172.863C115.651 174.779 113.219 172.715 113.219 172.715L113.592 176.201C113.592 176.201 114.138 177.407 116.034 177.23Z" fill="#FFBE9D"/>
<path d="M116.897 96.6747L114.111 97.6324L111.113 111.81L111.262 124.379C111.262 124.379 113.402 126.089 121.762 126.089C126.455 126.089 129.514 124.317 130.664 122.435L129.912 114.841C129.912 114.841 130.664 107.357 130.664 103.656C130.664 99.9547 130.831 96.9237 127.939 95.0898L125.363 95.3053L116.897 96.6747Z" fill="#58E5FF"/>
<path opacity="0.2" d="M116.897 96.6747L114.111 97.6324L111.113 111.81L111.262 124.379C111.262 124.379 113.402 126.089 121.762 126.089C126.455 126.089 129.514 124.317 130.664 122.435L129.912 114.841C129.912 114.841 130.664 107.357 130.664 103.656C130.664 99.9547 130.831 96.9237 127.939 95.0898L125.363 95.3053L116.897 96.6747Z" fill="white"/>
<path d="M113.872 84.4883L112.478 87.2511C112.458 87.2911 112.447 87.3351 112.446 87.3799C112.444 87.4247 112.452 87.4693 112.469 87.5107C112.487 87.5521 112.513 87.5893 112.546 87.6196C112.579 87.65 112.618 87.6729 112.66 87.6868L114.312 88.2422L113.872 84.4883Z" fill="#F28F8F"/>
<path d="M115.788 79.8594C115.788 79.8594 113.672 80.999 113.672 87.5205C113.672 91.1164 113.921 93.41 115.788 93.2663C117.656 93.1227 123.038 92.4188 123.038 92.4188V79.8594H115.788Z" fill="#FFBE9D"/>
<path d="M115.788 93.2884C116.444 93.2357 117.536 93.116 118.661 92.982V92.3164C117.635 92.7545 116.562 93.0757 115.463 93.274C115.571 93.2868 115.68 93.2916 115.788 93.2884Z" fill="#F28F8F"/>
<path d="M118.373 92.0404V96.1439H123.99V90.3789L118.373 92.0404Z" fill="#FFBE9D"/>
<path d="M118.371 94.5813C118.371 94.5813 120.392 95.2995 122.01 95.017C123.629 94.7345 123.988 93.7482 123.988 93.7482C123.988 93.7482 124.515 93.7051 125.362 95.2995C125.032 95.8953 124.56 96.4002 123.988 96.7694C123.415 97.1387 122.761 97.3607 122.082 97.4159C120.321 97.5287 118.555 97.276 116.896 96.6737C116.896 96.6737 117.701 94.3754 118.371 94.5813Z" fill="#58E5FF"/>
<path opacity="0.4" d="M118.371 94.5813C118.371 94.5813 120.392 95.2995 122.01 95.017C123.629 94.7345 123.988 93.7482 123.988 93.7482C123.988 93.7482 124.515 93.7051 125.362 95.2995C125.032 95.8953 124.56 96.4002 123.988 96.7694C123.415 97.1387 122.761 97.3607 122.082 97.4159C120.321 97.5287 118.555 97.276 116.896 96.6737C116.896 96.6737 117.701 94.3754 118.371 94.5813Z" fill="white"/>
<path d="M105.842 106.763L104.334 109.081C104.334 109.081 100.671 107.448 98.1092 106.457C96.6176 105.903 95.229 105.103 94.0009 104.092C94.0924 103.094 94.2524 102.103 94.4797 101.128C94.7766 100.122 94.8771 99.2842 94.0009 99.7295C93.1247 100.175 92.5166 101.903 92.4639 102.124C92.4639 102.124 87.3166 96.9475 86.675 97.0624C86.0333 97.1773 86.1961 97.953 87.5656 99.5475L88.9493 101.147C88.9493 101.147 85.7939 102.962 86.3063 104.944C86.8186 106.926 90.9795 107.817 90.9795 107.817C90.9795 107.817 103.156 117.173 105.852 115.478C108.547 113.783 112.364 108.942 112.364 108.942L105.842 106.763Z" fill="#FFBE9D"/>
<path d="M115.218 97.2637C115.218 97.2637 117.469 99.1119 116.004 102.933C114.539 106.754 110.799 111.37 110.799 111.37C110.799 111.37 106.882 110.149 105.369 106.984L110.311 99.2508C110.661 98.7002 111.136 98.2398 111.698 97.9071C112.259 97.5744 112.891 97.3785 113.543 97.3355C114.012 97.3068 114.567 97.2828 115.218 97.2637Z" fill="#58E5FF"/>
<path opacity="0.4" d="M115.218 97.2637C115.218 97.2637 117.469 99.1119 116.004 102.933C114.539 106.754 110.799 111.37 110.799 111.37C110.799 111.37 106.882 110.149 105.369 106.984L110.311 99.2508C110.661 98.7002 111.136 98.2398 111.698 97.9071C112.259 97.5744 112.891 97.3785 113.543 97.3355C114.012 97.3068 114.567 97.2828 115.218 97.2637Z" fill="white"/>
<path d="M114.996 76.0088C114.996 76.0088 112.774 75.7119 112.209 77.2393C111.855 78.197 112.985 78.9344 112.985 78.9344C112.985 78.9344 111.549 80.2799 113.689 80.6964C113.652 80.9261 113.673 81.1614 113.749 81.3812C113.825 81.6009 113.955 81.7984 114.126 81.9559C114.297 82.1134 114.505 82.2259 114.73 82.2836C114.956 82.3412 115.192 82.3421 115.418 82.2861C115.418 82.2861 115.169 83.7226 117.041 84.2445C117.041 84.2445 116.083 86.7631 117.874 86.7966H119.535L118.865 88.7406C118.865 88.7406 120.11 91.738 123.988 91.738C124.414 90.8275 124.894 89.9433 125.425 89.0901C125.904 88.4916 128.298 85.4224 128.298 82.99C128.298 80.5576 127.364 79.1163 126.066 78.7955C125.655 77.9018 125.014 77.1334 124.209 76.569C122.901 75.688 120.153 74.9027 118.602 75.9848C118.602 75.9848 117.227 74.1797 116.275 74.1797C115.322 74.1797 114.996 75.1613 114.996 76.0088Z" fill="#263238"/>
<path d="M117.876 86.7963C117.876 86.7963 117.713 84.2441 119.863 84.2441C122.013 84.2441 121.505 88.7403 118.867 88.7403L117.876 86.7963Z" fill="#FFBE9D"/>
</svg>
