<svg width="7" height="11" viewBox="0 0 7 11" fill="none" xmlns="http://www.w3.org/2000/svg">
<path fill-rule="evenodd" clip-rule="evenodd" d="M1.29357 10.2076C1.1061 10.02 1.00078 9.76573 1.00078 9.50057C1.00078 9.2354 1.1061 8.9811 1.29357 8.79357L4.58657 5.50057L1.29357 2.20757C1.19806 2.11532 1.12188 2.00498 1.06947 1.88297C1.01706 1.76097 0.989473 1.62975 0.988319 1.49697C0.987165 1.36419 1.01247 1.23251 1.06275 1.10962C1.11303 0.986719 1.18728 0.875067 1.28117 0.781174C1.37507 0.687282 1.48672 0.613028 1.60962 0.562748C1.73251 0.512467 1.86419 0.487165 1.99697 0.488319C2.12975 0.489473 2.26097 0.517059 2.38297 0.569468C2.50498 0.621877 2.61532 0.698059 2.70757 0.79357L6.70757 4.79357C6.89504 4.9811 7.00036 5.2354 7.00036 5.50057C7.00036 5.76573 6.89504 6.02004 6.70757 6.20757L2.70757 10.2076C2.52004 10.395 2.26573 10.5004 2.00057 10.5004C1.73541 10.5004 1.4811 10.395 1.29357 10.2076Z" fill="#192841"/>
</svg>
