<svg width="22" height="25" viewBox="0 0 22 25" fill="none" xmlns="http://www.w3.org/2000/svg">
<path d="M13.1199 0.11574C12.2359 -0.13126 11.5399 0.49574 11.2999 1.10374L11.0399 1.76374C9.03392 6.85374 7.20292 11.5037 2.42792 13.9207C1.32692 14.4787 0.559924 15.6857 0.779924 17.0067L1.19592 19.5027C1.31241 20.2026 1.62503 20.855 2.09746 21.3842C2.5699 21.9135 3.18277 22.2979 3.86492 22.4927L11.5549 24.6887C12.4497 24.9444 13.3878 25.0122 14.31 24.888C15.2323 24.7638 16.119 24.4502 16.9143 23.967C17.7096 23.4837 18.3964 22.8412 18.9315 22.0799C19.4667 21.3185 19.8386 20.4547 20.0239 19.5427L21.2519 13.4967C21.3626 12.9521 21.3509 12.3896 21.2175 11.85C21.0842 11.3104 20.8325 10.8072 20.4808 10.3768C20.1291 9.94639 19.6861 9.59957 19.1839 9.36141C18.6816 9.12325 18.1328 8.99972 17.5769 8.99974H15.4099C15.7549 7.49674 15.9139 5.78274 15.7569 4.26974C15.5719 2.49974 14.8979 0.61074 13.1199 0.11574Z" fill="#656F80"/>
</svg>
