<svg width="16" height="17" viewBox="0 0 16 17" fill="none" xmlns="http://www.w3.org/2000/svg">
<path fill-rule="evenodd" clip-rule="evenodd" d="M8 3.02501C5.50135 3.02501 3.46708 5.14672 3.46708 7.77518C3.46708 9.61451 4.61401 11.4199 5.90104 12.8419C6.52987 13.5367 7.16115 14.106 7.63601 14.5018C7.77191 14.6151 7.89451 14.7138 8 14.7967C8.10548 14.7138 8.22809 14.6151 8.36399 14.5018C8.83885 14.106 9.47013 13.5367 10.099 12.8419C11.386 11.4199 12.5329 9.61451 12.5329 7.77518C12.5329 5.14672 10.4986 3.02501 8 3.02501ZM8 15.7379C7.59114 16.371 7.59096 16.3709 7.59076 16.3707L7.58889 16.3694L7.58472 16.3665L7.57078 16.3566L7.52123 16.321C7.47891 16.2904 7.41839 16.2459 7.34226 16.1883C7.19007 16.0733 6.9751 15.9057 6.71823 15.6916C6.20562 15.2643 5.52029 14.6468 4.8325 13.8869C3.48631 12.3995 2 10.2235 2 7.77518C2 4.31451 4.68148 1.5 8 1.5C11.3185 1.5 14 4.31451 14 7.77518C14 10.2235 12.5137 12.3995 11.1675 13.8869C10.4797 14.6468 9.79438 15.2643 9.28177 15.6916C9.0249 15.9057 8.80993 16.0733 8.65774 16.1883C8.58161 16.2459 8.52109 16.2904 8.47877 16.321L8.42922 16.3566L8.41528 16.3665L8.41111 16.3694L8.40974 16.3704C8.40954 16.3705 8.40886 16.371 8 15.7379ZM8 15.7379L8.40974 16.3704C8.16245 16.543 7.83805 16.5433 7.59076 16.3707L8 15.7379Z" fill="#222222"/>
<path fill-rule="evenodd" clip-rule="evenodd" d="M6 7.5C6 6.39543 6.89543 5.5 8 5.5C9.10457 5.5 10 6.39543 10 7.5C10 8.60457 9.10457 9.5 8 9.5C6.89543 9.5 6 8.60457 6 7.5ZM8 6.74647C7.58383 6.74647 7.24647 7.08383 7.24647 7.5C7.24647 7.91617 7.58383 8.25353 8 8.25353C8.41617 8.25353 8.75353 7.91617 8.75353 7.5C8.75353 7.08383 8.41617 6.74647 8 6.74647Z" fill="#222222"/>
</svg>
