<svg width="33" height="32" viewBox="0 0 33 32" fill="none" xmlns="http://www.w3.org/2000/svg">
<circle cx="16.5" cy="16" r="16" fill="#58FFC3"/>
<path d="M22.4683 14.308C22.4306 14.1969 22.3612 14.0994 22.2686 14.0273C22.1761 13.9552 22.0644 13.9118 21.9475 13.9025L18.5269 13.6307L17.0467 10.3545C16.9995 10.249 16.9228 10.1594 16.8259 10.0965C16.7289 10.0336 16.6158 10.0001 16.5002 10C16.3847 9.99994 16.2715 10.0333 16.1745 10.0961C16.0775 10.1589 16.0007 10.2485 15.9534 10.3539L14.4732 13.6307L11.0526 13.9025C10.9377 13.9116 10.8278 13.9536 10.7362 14.0235C10.6445 14.0934 10.5749 14.1882 10.5357 14.2966C10.4965 14.405 10.4894 14.5224 10.5152 14.6348C10.541 14.7471 10.5987 14.8497 10.6812 14.9301L13.209 17.394L12.315 21.2647C12.2879 21.3819 12.2966 21.5045 12.34 21.6166C12.3834 21.7288 12.4595 21.8253 12.5585 21.8937C12.6575 21.962 12.7747 21.9991 12.895 22C13.0153 22.0009 13.133 21.9656 13.233 21.8988L16.5001 19.7211L19.7671 21.8988C19.8693 21.9667 19.9898 22.0016 20.1125 21.9989C20.2351 21.9962 20.354 21.956 20.4531 21.8838C20.5522 21.8115 20.6269 21.7106 20.6669 21.5947C20.707 21.4788 20.7106 21.3533 20.6773 21.2353L19.5799 17.3958L22.3015 14.9469C22.4797 14.7861 22.5451 14.5354 22.4683 14.308Z" fill="white"/>
</svg>
