<svg width="25" height="26" viewBox="0 0 25 26" fill="none" xmlns="http://www.w3.org/2000/svg">
<path d="M11.679 0.59046C7.80717 0.831085 4.24155 2.91468 2.09779 6.19046C-0.149862 9.6139 -0.560019 13.9123 0.987638 17.7186C2.44233 21.2787 5.49936 23.9748 9.23998 25.003C11.2798 25.5608 13.6095 25.5717 15.6494 25.0358C19.133 24.117 22.0861 21.6998 23.6556 18.4951C24.5251 16.7069 24.9244 14.9678 24.9244 12.9444C24.9189 6.9014 20.5494 1.7553 14.5501 0.727179C14.1017 0.650618 13.6861 0.612335 12.7181 0.563116C12.5212 0.557648 12.0564 0.568586 11.679 0.59046ZM16.3822 8.74437C16.6501 8.88108 16.8744 9.23108 16.8744 9.50999C16.8744 9.7178 14.9822 14.6178 14.7908 14.8912C14.7087 15.0116 14.5447 15.1866 14.4298 15.2741C14.304 15.3725 13.2705 15.7936 11.679 16.4061C9.47514 17.2537 9.10327 17.3795 8.90639 17.3576C8.44702 17.3084 8.08608 16.8655 8.14077 16.4225C8.17905 16.1053 10.0001 11.3803 10.1861 11.1178C10.2681 11.003 10.4322 10.828 10.5415 10.7405C10.7822 10.5491 15.7095 8.62952 15.972 8.62405C16.065 8.62405 16.2509 8.67874 16.3822 8.74437Z" fill="#656F80"/>
</svg>
