<svg width="104" height="43" viewBox="0 0 104 43" fill="none" xmlns="http://www.w3.org/2000/svg">
<rect x="0.150391" y="15.5234" width="101" height="27" rx="13.5" transform="rotate(-8.34722 0.150391 15.5234)" fill="url(#paint0_linear_1501_23715)"/>
<path d="M40.6115 27.7792L39.4618 27.9479L38.1062 18.7088L41.8184 18.1641C42.7142 18.0327 43.4599 18.1969 44.0556 18.6566C44.6513 19.1163 45.0068 19.7386 45.122 20.5236C45.2371 21.3085 45.0708 22.0074 44.623 22.6202C44.1845 23.2317 43.522 23.6024 42.6355 23.7325L40.0729 24.1085L40.6115 27.7792ZM42.3466 22.7278C42.8914 22.6479 43.3109 22.4212 43.6052 22.0479C43.8981 21.6653 44.0066 21.2155 43.9307 20.6983C43.8548 20.1812 43.6224 19.7861 43.2333 19.513C42.8428 19.2307 42.3752 19.1295 41.8303 19.2095L39.4063 19.5652L39.9225 23.0835L42.3466 22.7278ZM48.2591 26.6571L47.2202 26.8095L46.2385 20.1192L47.2774 19.9667L47.436 21.0472C47.9354 20.1438 48.6192 19.6284 49.4872 19.501L49.6437 20.5676C49.5104 20.5589 49.3698 20.5653 49.2221 20.587C48.9081 20.6331 48.5827 20.794 48.2458 21.0698C47.909 21.3457 47.6817 21.629 47.564 21.9198L48.2591 26.6571ZM54.5066 25.9102C53.5093 26.0566 52.6446 25.8533 51.9126 25.3004C51.1792 24.7382 50.736 23.9354 50.5828 22.8919C50.4392 21.913 50.6319 21.0405 51.161 20.2742C51.6886 19.4987 52.4234 19.0419 53.3654 18.9037C54.3534 18.7587 55.1839 18.9859 55.8567 19.5852C56.5374 20.174 56.9536 20.9855 57.1053 22.0198L57.144 22.2829L51.7279 23.0776C51.8703 23.7265 52.191 24.2407 52.6901 24.6203C53.1891 24.9998 53.785 25.1388 54.4775 25.0372C55.3087 24.9153 55.9553 24.5327 56.4175 23.8894L57.0157 24.495C56.4326 25.2786 55.5963 25.7504 54.5066 25.9102ZM56.0071 21.6715C55.9139 21.1003 55.6448 20.6163 55.1998 20.2193C54.7534 19.8131 54.1793 19.6615 53.4775 19.7645C52.8126 19.8621 52.3195 20.1656 51.998 20.6749C51.6858 21.183 51.5585 21.7299 51.6162 22.3158L56.0071 21.6715ZM68.0523 23.7529L67.0134 23.9054L66.3467 19.362C66.2113 18.4386 65.7326 18.0371 64.9107 18.1577C64.5783 18.2065 64.2607 18.3569 63.9581 18.6088C63.6555 18.8607 63.4321 19.1388 63.2881 19.4429L64.0076 24.3464L62.9687 24.4988L62.3021 19.9555C62.1666 19.032 61.6879 18.6306 60.866 18.7512C60.5428 18.7986 60.2299 18.9483 59.9273 19.2002C59.6339 19.4508 59.4112 19.7335 59.2593 20.0482L59.9767 24.9378L58.9378 25.0903L57.9562 18.3999L58.9951 18.2475L59.1373 19.2171C59.2656 18.9341 59.5192 18.6375 59.8982 18.3272C60.2772 18.0169 60.6883 17.8292 61.1315 17.7642C61.621 17.6924 62.035 17.7495 62.3736 17.9357C62.7122 18.1218 62.9594 18.3921 63.1152 18.7466C63.2696 18.3844 63.5362 18.0481 63.9152 17.7378C64.2942 17.4275 64.7145 17.2385 65.1762 17.1707C66.4229 16.9878 67.1451 17.5705 67.3429 18.9187L68.0523 23.7529ZM69.1855 15.7759C69.0008 15.803 68.8297 15.7621 68.6723 15.6531C68.5134 15.5349 68.4198 15.3789 68.3913 15.1849C68.3629 14.991 68.4077 14.8146 68.5259 14.6558C68.6441 14.497 68.7956 14.404 68.9803 14.3769C69.1742 14.3484 69.3506 14.3933 69.5094 14.5115C69.6682 14.6297 69.7619 14.7857 69.7903 14.9797C69.8188 15.1736 69.7739 15.35 69.6557 15.5088C69.5362 15.6584 69.3794 15.7475 69.1855 15.7759ZM70.8338 23.3448L69.7949 23.4972L68.8132 16.8069L69.8521 16.6544L70.8338 23.3448ZM78.1308 22.2741L77.092 22.4266L76.9538 21.4847C76.7228 21.8393 76.4105 22.1539 76.0169 22.4287C75.6325 22.702 75.2048 22.8733 74.7339 22.9424C73.3118 23.151 72.4964 22.5443 72.2877 21.1222L71.5947 16.3988L72.6335 16.2463L73.2798 20.6512C73.3611 21.2052 73.5434 21.5794 73.8266 21.7737C74.119 21.9666 74.51 22.0272 74.9994 21.9554C75.3872 21.8985 75.747 21.7466 76.0787 21.4999C76.4196 21.2517 76.6707 20.9696 76.8318 20.6536L76.1103 15.7362L77.1492 15.5838L78.1308 22.2741ZM88.9902 20.6808L87.9513 20.8332L87.2847 16.2899C87.1492 15.3664 86.6705 14.965 85.8486 15.0856C85.5162 15.1344 85.1987 15.2847 84.896 15.5367C84.5934 15.7886 84.3701 16.0666 84.226 16.3708L84.9455 21.2743L83.9066 21.4267L83.24 16.8833C83.1045 15.9599 82.6258 15.5585 81.8039 15.679C81.4807 15.7265 81.1678 15.8761 80.8652 16.1281C80.5718 16.3787 80.3491 16.6613 80.1972 16.976L80.9146 21.8657L79.8758 22.0181L78.8941 15.3277L79.933 15.1753L80.0753 16.1449C80.2035 15.862 80.4572 15.5654 80.8361 15.2551C81.2151 14.9447 81.6262 14.7571 82.0695 14.692C82.5589 14.6202 82.9729 14.6774 83.3115 14.8635C83.6501 15.0497 83.8973 15.32 84.0531 15.6745C84.2075 15.3122 84.4742 14.976 84.8531 14.6657C85.2321 14.3554 85.6524 14.1663 86.1142 14.0986C87.3608 13.9157 88.0831 14.4983 88.2809 15.8466L88.9902 20.6808Z" fill="white"/>
<g clip-path="url(#clip0_1501_23715)">
<path d="M18.4805 19.9079C18.395 19.9204 18.3142 19.9549 18.246 20.008C18.1778 20.061 18.1245 20.1308 18.0913 20.2106L15.8489 25.5932C15.8092 25.6889 15.8002 25.7947 15.8231 25.8958C15.8461 25.9969 15.9 26.0884 15.9772 26.1575L24.7043 33.9734C24.7589 34.0223 24.8236 34.0585 24.8938 34.0796C24.9639 34.1007 25.0379 34.1062 25.1104 34.0955C25.1828 34.0849 25.2521 34.0584 25.3133 34.0181C25.3744 33.9777 25.4259 33.9244 25.4642 33.8619L31.5782 23.8685C31.6323 23.78 31.6576 23.6769 31.6506 23.5735C31.6436 23.47 31.6046 23.3713 31.539 23.291L27.8449 18.7795C27.7902 18.7126 27.7191 18.6611 27.6385 18.6298C27.5579 18.5986 27.4706 18.5888 27.3851 18.6014L18.4805 19.9079ZM17.1118 25.1623L18.9057 20.8562L20.8637 20.5689L19.8613 24.7588L17.1118 25.1623ZM20.0025 25.7488L23.0917 31.187L17.44 26.1248L20.0025 25.7488ZM24.8375 32.2357L21.0642 25.5931L26.5435 24.7891L24.8375 32.2357ZM20.9269 24.6025L21.9293 20.4126L24.2267 20.0755L26.3904 23.8009L20.9279 24.6024L20.9269 24.6025ZM27.457 23.6444L25.2933 19.919L27.2503 19.6319L30.2056 23.2411L27.456 23.6445L27.457 23.6444ZM27.6051 24.6333L30.1677 24.2573L26.2084 30.7297L27.6051 24.6333Z" fill="white"/>
</g>
<defs>
<linearGradient id="paint0_linear_1501_23715" x1="26.4559" y1="-2.63173" x2="74.8323" y2="34.5866" gradientUnits="userSpaceOnUse">
<stop stop-color="#FFAB2D"/>
<stop offset="1" stop-color="#FF7A00"/>
</linearGradient>
<clipPath id="clip0_1501_23715">
<rect width="20" height="20" fill="white" transform="translate(12.6035 17.7383) rotate(-8.34722)"/>
</clipPath>
</defs>
</svg>
