<svg width="200" height="162" viewBox="0 0 200 162" fill="none" xmlns="http://www.w3.org/2000/svg">
<path d="M99.9872 161.953C155.209 161.953 199.974 136.108 199.974 104.227C199.974 72.345 155.209 46.5 99.9872 46.5C44.7658 46.5 0 72.345 0 104.227C0 136.108 44.7658 161.953 99.9872 161.953Z" fill="#F5F5F5"/>
<path d="M151.001 41.1457C151.001 41.1457 144.129 96.1721 132.833 108.545C119.236 123.398 109.435 121.222 103.965 128.889C98.4845 121.212 88.6527 123.398 75.0766 108.535C63.7805 96.1616 56.9297 41.1353 56.9297 41.1353C86.6864 26.691 103.997 10.5 103.997 10.5C104.499 11.023 121.704 26.9316 151.001 41.1457Z" fill="#58E5FF"/>
<path opacity="0.1" d="M103.965 10.5523V128.889C98.4845 121.212 88.6527 123.398 75.0766 108.535C63.7805 96.1616 56.9297 41.1353 56.9297 41.1353C86.6864 26.691 103.997 10.5 103.997 10.5L103.965 10.5523Z" fill="black"/>
<path d="M64.2188 45.5801C64.2188 45.5801 70.0132 92.0612 79.5521 102.521C91.0573 115.072 99.3411 113.241 103.964 119.705C108.587 113.241 116.902 115.082 128.366 102.521C137.904 92.0612 143.699 45.5801 143.699 45.5801C118.597 33.3741 103.954 19.6934 103.954 19.6934C103.954 19.6934 89.3524 33.3741 64.2188 45.5801Z" fill="#58E5FF"/>
<path opacity="0.2" d="M143.69 45.5787C143.69 45.5787 137.885 92.0494 128.346 102.519C116.893 115.07 108.578 113.24 103.955 119.693V19.7129C104.394 20.1313 118.943 33.561 143.69 45.5787Z" fill="white"/>
<path d="M103.957 88.1281C114.135 88.1281 122.386 79.877 122.386 69.6988C122.386 59.5206 114.135 51.2695 103.957 51.2695C93.7784 51.2695 85.5273 59.5206 85.5273 69.6988C85.5273 79.877 93.7784 88.1281 103.957 88.1281Z" fill="#455A64"/>
<path d="M101.859 81.6751L93.6484 73.1403L96.6921 70.2117L101.221 74.9184L110.969 59.9512L114.515 62.2627L101.859 81.6751Z" fill="white"/>
<path d="M143.687 120.803L141.082 121.295L140.497 124.035L139.911 121.295L137.307 120.803L139.901 120.176L140.497 117.582L141.093 120.176L143.687 120.803Z" fill="#58E5FF"/>
<path d="M66.4876 99.9175L63.8832 100.399L63.2975 103.149L62.7118 100.399L60.1074 99.9175L62.7013 99.2794L63.2975 96.6855L63.8937 99.2794L66.4876 99.9175Z" fill="#58E5FF"/>
<path d="M78.3821 27.4975L75.7777 27.9787L75.192 30.719L74.6168 27.9787L72.002 27.4871L74.6063 26.8595L75.192 24.2656L75.7882 26.8595L78.3821 27.4975Z" fill="#58E5FF"/>
<path d="M139.024 108.452L137.57 108.724L137.246 110.262L136.921 108.724L135.457 108.452L136.911 108.096L137.246 106.643L137.57 108.096L139.024 108.452Z" fill="#58E5FF"/>
<path d="M149.096 77.8791L147.642 78.151L147.318 79.6885L146.994 78.151L145.529 77.8791L146.983 77.5235L147.318 76.0801L147.653 77.5235L149.096 77.8791Z" fill="#58E5FF"/>
<path d="M136.735 24.2645L135.281 24.5365L134.957 26.0635L134.622 24.5365L133.168 24.2645L134.622 23.9089L134.957 22.4551L135.281 23.9089L136.735 24.2645Z" fill="#58E5FF"/>
<path d="M99.5295 135.499L98.0757 135.771L97.741 137.298L97.4167 135.771L95.9629 135.499L97.4167 135.143L97.741 133.689L98.0757 135.143L99.5295 135.499Z" fill="#58E5FF"/>
<path d="M58.3928 103.493L56.9389 103.765L56.6043 105.303L56.28 103.765L54.8262 103.493L56.28 103.137L56.6043 101.684L56.9389 103.137L58.3928 103.493Z" fill="#58E5FF"/>
<path d="M60.6623 60.9247L59.198 61.1966L58.8738 62.7341L58.5495 61.1966L57.0957 60.9247L58.5391 60.5691L58.8738 59.1152L59.2085 60.5691L60.6623 60.9247Z" fill="#58E5FF"/>
<path d="M121.764 115.346C121.663 115.362 121.572 115.413 121.505 115.491C121.439 115.568 121.402 115.667 121.402 115.769C121.402 115.871 121.439 115.97 121.505 116.048C121.572 116.126 121.663 116.177 121.764 116.193C121.865 116.177 121.957 116.126 122.024 116.048C122.09 115.97 122.126 115.871 122.126 115.769C122.126 115.667 122.09 115.568 122.024 115.491C121.957 115.413 121.865 115.362 121.764 115.346Z" fill="#58E5FF"/>
<path d="M54.614 38.793C54.5131 38.8089 54.4212 38.8603 54.3548 38.9379C54.2885 39.0156 54.252 39.1144 54.252 39.2166C54.252 39.3187 54.2885 39.4175 54.3548 39.4952C54.4212 39.5729 54.5131 39.6243 54.614 39.6402C54.7149 39.6243 54.8069 39.5729 54.8732 39.4952C54.9396 39.4175 54.9761 39.3187 54.9761 39.2166C54.9761 39.1144 54.9396 39.0156 54.8732 38.9379C54.8069 38.8603 54.7149 38.8089 54.614 38.793Z" fill="#58E5FF"/>
<path d="M134.958 117.717C134.857 117.733 134.765 117.784 134.699 117.862C134.632 117.939 134.596 118.038 134.596 118.14C134.596 118.243 134.632 118.341 134.699 118.419C134.765 118.497 134.857 118.548 134.958 118.564C135.059 118.548 135.151 118.497 135.217 118.419C135.283 118.341 135.32 118.243 135.32 118.14C135.32 118.038 135.283 117.939 135.217 117.862C135.151 117.784 135.059 117.733 134.958 117.717Z" fill="#58E5FF"/>
<path d="M92.1859 51.7734C92.075 51.7734 91.9686 51.8175 91.8901 51.896C91.8117 51.9744 91.7676 52.0808 91.7676 52.1918C91.7676 52.3028 91.8117 52.4092 91.8901 52.4876C91.9686 52.5661 92.075 52.6102 92.1859 52.6102C92.2969 52.6102 92.4033 52.5661 92.4818 52.4876C92.5602 52.4092 92.6043 52.3028 92.6043 52.1918C92.6043 52.0808 92.5602 51.9744 92.4818 51.896C92.4033 51.8175 92.2969 51.7734 92.1859 51.7734Z" fill="#58E5FF"/>
<path d="M53.0886 68.7793C52.9877 68.7952 52.8958 68.8466 52.8294 68.9243C52.763 69.0019 52.7266 69.1007 52.7266 69.2029C52.7266 69.3051 52.763 69.4039 52.8294 69.4815C52.8958 69.5592 52.9877 69.6106 53.0886 69.6265C53.1895 69.6106 53.2815 69.5592 53.3478 69.4815C53.4142 69.4039 53.4507 69.3051 53.4507 69.2029C53.4507 69.1007 53.4142 69.0019 53.3478 68.9243C53.2815 68.8466 53.1895 68.7952 53.0886 68.7793Z" fill="#58E5FF"/>
<path d="M43.2472 64.1777C43.1777 64.1908 43.115 64.2278 43.0698 64.2822C43.0247 64.3366 43 64.4051 43 64.4758C43 64.5465 43.0247 64.615 43.0698 64.6695C43.115 64.7239 43.1777 64.7608 43.2472 64.7739C43.3167 64.7608 43.3795 64.7239 43.4246 64.6695C43.4698 64.615 43.4945 64.5465 43.4945 64.4758C43.4945 64.4051 43.4698 64.3366 43.4246 64.2822C43.3795 64.2278 43.3167 64.1908 43.2472 64.1777Z" fill="#58E5FF"/>
<path d="M123.816 18.752C123.746 18.765 123.683 18.802 123.638 18.8564C123.593 18.9108 123.568 18.9793 123.568 19.05C123.568 19.1208 123.593 19.1893 123.638 19.2437C123.683 19.2981 123.746 19.3351 123.816 19.3481C123.885 19.3351 123.948 19.2981 123.993 19.2437C124.038 19.1893 124.063 19.1208 124.063 19.05C124.063 18.9793 124.038 18.9108 123.993 18.8564C123.948 18.802 123.885 18.765 123.816 18.752Z" fill="#58E5FF"/>
<path d="M82.1262 121.012C82.0567 121.025 81.9939 121.062 81.9488 121.116C81.9036 121.171 81.8789 121.239 81.8789 121.31C81.8789 121.381 81.9036 121.449 81.9488 121.503C81.9939 121.558 82.0567 121.595 82.1262 121.608C82.1956 121.595 82.2584 121.558 82.3035 121.503C82.3487 121.449 82.3734 121.381 82.3734 121.31C82.3734 121.239 82.3487 121.171 82.3035 121.116C82.2584 121.062 82.1956 121.025 82.1262 121.012Z" fill="#58E5FF"/>
<path d="M72.7842 115.523C72.585 115.546 72.4012 115.641 72.2678 115.791C72.1343 115.94 72.0605 116.134 72.0605 116.334C72.0605 116.534 72.1343 116.728 72.2678 116.877C72.4012 117.027 72.585 117.122 72.7842 117.145C72.9833 117.122 73.1671 117.027 73.3005 116.877C73.434 116.728 73.5077 116.534 73.5077 116.334C73.5077 116.134 73.434 115.94 73.3005 115.791C73.1671 115.641 72.9833 115.546 72.7842 115.523Z" fill="#58E5FF"/>
<path d="M28.1247 112.441C28.4867 114.919 28.3624 117.443 27.7588 119.874C27.4732 120.999 27.0927 122.098 26.6213 123.158C26.0306 124.521 25.4133 125.848 25.5588 127.333C25.7043 127.43 25.2105 127.417 25.1929 127.272C21.225 125.006 16.1196 124.591 13.0599 120.888C11.6094 119.124 10.8776 116.92 10.5293 114.715C10.1545 112.295 10.0487 109.615 10.6748 107.221C11.1994 105.206 12.381 103.253 14.2723 102.269C16.2298 101.251 18.7913 101.339 20.8546 101.978C25.2899 103.345 27.4987 108.146 28.1247 112.441Z" fill="#58E5FF"/>
<path d="M30.1702 141.879C29.6235 140.072 29.0812 138.26 28.5257 136.456C27.4367 132.929 26.2993 129.402 25.0428 125.919C24.2933 123.832 23.5012 121.768 22.6664 119.725C22.7582 118.438 22.9156 117.156 23.1382 115.885C23.4732 114.342 23.9538 112.852 24.4035 111.344C24.43 111.251 24.28 111.203 24.2448 111.291C23.363 113.368 22.1859 116.026 22.155 118.491C21.1851 116.176 20.149 113.897 19.0292 111.648C18.9031 109.748 18.9621 107.84 19.2055 105.952C19.2055 105.864 19.0865 105.837 19.0733 105.925C18.7317 107.579 18.6014 109.269 18.6853 110.956C17.83 109.266 16.9247 107.599 15.9695 105.956C15.8813 105.811 15.6785 105.956 15.7534 106.106C17.2495 108.984 18.6441 111.914 19.9374 114.897C18.1049 113.311 15.9879 112.087 13.6989 111.291C13.602 111.251 13.527 111.397 13.6284 111.441C16.125 112.514 18.4095 114.025 20.3739 115.903C21.3085 118.086 22.1991 120.291 23.0456 122.516C20.5546 120.078 17.151 118.473 13.8577 117.613C13.7475 117.582 13.7166 117.754 13.8224 117.79C17.636 118.936 20.5987 121.096 23.4953 123.693C23.8303 124.575 24.161 125.487 24.4873 126.382C25.7129 129.792 26.8886 133.22 28.0143 136.668C28.5463 138.323 29.0724 139.977 29.5926 141.632C30.1481 143.418 30.5846 145.3 31.3076 147.02C31.3738 147.187 31.6692 147.148 31.6339 146.954C31.233 145.238 30.7444 143.545 30.1702 141.879Z" fill="#263238"/>
<path d="M23.5715 108.958C22.867 110.044 22.3804 111.257 22.1387 112.529C22.1387 112.56 22.1872 112.582 22.196 112.529C22.6412 111.33 23.161 110.161 23.7523 109.028C23.792 108.927 23.6421 108.856 23.5715 108.958Z" fill="#263238"/>
<path d="M16.4777 117.242C15.3704 116.632 14.1623 116.225 12.911 116.043C12.8757 116.043 12.8581 116.087 12.889 116.1C13.4665 116.338 14.0661 116.506 14.6525 116.726C15.2388 116.947 15.8032 117.225 16.394 117.427C16.4061 117.433 16.4192 117.436 16.4326 117.436C16.4459 117.437 16.4592 117.435 16.4717 117.43C16.4842 117.425 16.4956 117.418 16.5053 117.409C16.5151 117.4 16.5229 117.389 16.5284 117.377C16.5339 117.364 16.537 117.351 16.5374 117.338C16.5378 117.325 16.5356 117.311 16.5309 117.299C16.5262 117.286 16.5191 117.275 16.51 117.265C16.5008 117.255 16.4899 117.248 16.4777 117.242Z" fill="#263238"/>
<path d="M14.4795 107.263C14.1207 106.988 13.7352 106.751 13.3288 106.553C13.3156 106.548 13.3009 106.547 13.2873 106.552C13.2737 106.556 13.262 106.565 13.2542 106.577C13.2464 106.589 13.243 106.603 13.2445 106.617C13.2461 106.631 13.2525 106.645 13.2627 106.655C13.6163 106.934 13.9957 107.179 14.3957 107.387C14.4707 107.444 14.5324 107.32 14.4795 107.263Z" fill="#263238"/>
<path d="M41.5337 125.945C38.6724 126.796 35.8023 127.581 32.9277 128.423C32.6808 128.498 27.84 119.217 29.5859 114.438C31.2039 110.029 34.9073 106.705 39.3249 105.202C41.3662 104.51 43.8836 103.923 46.0439 104.399C47.9617 104.84 49.3196 106.397 49.9457 108.204C50.7966 110.66 50.51 113.587 50.0471 116.096C49.6808 118.451 48.7101 120.67 47.2298 122.537C45.7088 124.345 43.7689 125.284 41.5337 125.945Z" fill="#58E5FF"/>
<path d="M45.6852 117.125C43.8743 118.008 41.9961 118.745 40.0684 119.33C38.7835 119.675 37.5299 120.128 36.321 120.683C37.529 117.989 38.8604 115.349 40.2668 112.747C42.1185 112.21 44.0628 111.376 45.4604 110.067C45.4685 110.06 45.4751 110.051 45.48 110.042C45.4848 110.032 45.4877 110.022 45.4885 110.011C45.4893 110.001 45.488 109.99 45.4847 109.98C45.4814 109.97 45.4761 109.96 45.4692 109.952C45.4622 109.944 45.4538 109.937 45.4442 109.933C45.4347 109.928 45.4243 109.925 45.4137 109.924C45.403 109.923 45.3924 109.925 45.3822 109.928C45.3721 109.931 45.3627 109.936 45.3546 109.943C43.8291 111.024 42.145 111.672 40.4564 112.399C40.84 111.698 41.2235 110.993 41.6159 110.292C41.7217 110.098 41.4528 109.904 41.3249 110.093C39.8187 112.279 38.4592 114.561 37.2556 116.927C36.9454 114.855 36.8464 112.758 36.9602 110.666C36.9573 110.658 36.9517 110.65 36.9442 110.644C36.9367 110.639 36.9276 110.636 36.9183 110.636C36.9091 110.636 36.9 110.639 36.8925 110.644C36.885 110.65 36.8794 110.658 36.8765 110.666C36.5185 112.949 36.5423 115.274 36.947 117.549C35.9418 119.555 35.0248 121.609 34.2047 123.686C33.8785 122.438 33.4552 121.208 33.1687 119.947C32.7357 118.144 32.5973 116.283 32.7586 114.436C32.7557 114.427 32.7501 114.419 32.7426 114.414C32.7351 114.409 32.726 114.406 32.7168 114.406C32.7075 114.406 32.6984 114.409 32.6909 114.414C32.6834 114.419 32.6778 114.427 32.6749 114.436C32.1646 117.863 32.5801 121.364 33.8785 124.576C33.3979 125.828 32.9438 127.085 32.525 128.341C30.3671 134.764 29.0887 141.45 28.7246 148.216C28.7246 148.248 28.7371 148.278 28.7595 148.3C28.7818 148.323 28.8121 148.335 28.8436 148.335C28.8752 148.335 28.9055 148.323 28.9278 148.3C28.9501 148.278 28.9627 148.248 28.9627 148.216C29.7146 141.541 31.146 134.96 33.2348 128.575C34.0637 126.08 35.0204 123.655 36.0697 121.274C37.7582 120.776 39.4468 120.097 41.1089 119.51C42.771 118.924 44.389 118.298 45.7513 117.231C45.8043 117.183 45.7469 117.094 45.6852 117.125Z" fill="#263238"/>
<path d="M48.3567 114.434C46.5932 115.055 44.9443 115.928 43.194 116.559C43.1146 116.59 43.1587 116.717 43.2425 116.704C45.0942 116.321 46.9326 115.747 48.4228 114.535C48.4801 114.487 48.4184 114.412 48.3567 114.434Z" fill="#263238"/>
<path d="M34.0507 110.654C34.0728 110.561 33.9361 110.509 33.9052 110.601C33.4247 112.215 33.094 113.93 33.5613 115.579C33.5613 115.645 33.6804 115.649 33.6848 115.579C33.7686 113.908 33.676 112.29 34.0507 110.654Z" fill="#263238"/>
<path d="M41.2865 106.926C40.7271 107.726 40.4594 108.694 40.5281 109.668C40.5281 109.73 40.6295 109.77 40.6472 109.695C40.8588 108.773 41.2159 107.931 41.4981 107.049C41.5145 107.021 41.519 106.988 41.5107 106.957C41.5025 106.925 41.4821 106.898 41.454 106.882C41.4259 106.866 41.3925 106.861 41.3611 106.869C41.3297 106.878 41.3028 106.898 41.2865 106.926Z" fill="#263238"/>
<path d="M7.47831 130.036C8.32039 132.704 10.3132 136.385 13.4743 136.416C15.5199 136.416 17.5833 136.191 19.6466 136.165C21.851 136.129 24.0554 136.134 26.2598 136.266C26.4405 136.266 25.9952 129.684 20.7135 126.47C19.2321 125.588 17.4201 125.288 15.7404 124.922C13.8171 124.468 11.8435 124.262 9.86788 124.309C8.65547 124.358 7.66349 124.618 7.22261 125.861C6.78173 127.105 7.06389 128.771 7.47831 130.036Z" fill="#58E5FF"/>
<path d="M9.73845 126.703C11.0214 127.034 12.3176 127.413 13.605 127.823C13.2696 127.458 12.9149 127.11 12.5424 126.783C11.9869 126.342 11.3785 125.954 10.7789 125.553C10.7304 125.517 10.7789 125.425 10.823 125.447C12.0731 125.967 13.1528 126.827 13.94 127.929C15.5448 128.445 17.1364 129.018 18.6707 129.648C19.7268 130.082 20.7395 130.615 21.6951 131.24C21.3888 130.573 21.0228 129.936 20.6017 129.335C19.9007 128.427 18.9484 127.92 18.0314 127.276C18.0171 127.263 18.0078 127.246 18.005 127.227C18.0021 127.208 18.006 127.188 18.0158 127.172C18.0256 127.155 18.0409 127.142 18.059 127.136C18.0771 127.129 18.0969 127.129 18.1151 127.135C19.075 127.552 19.9374 128.165 20.6471 128.934C21.3569 129.703 21.8985 130.611 22.2374 131.601C23.3383 132.391 24.3443 133.305 25.2353 134.326C28.7315 138.294 31.4826 143.584 31.4914 148.972C31.4914 149.1 31.2886 149.135 31.2622 149.003C30.3642 143.717 28.0618 138.77 24.5961 134.679C24.3448 134.388 24.089 134.11 23.8245 133.841C22.8672 133.711 21.9028 133.64 20.9368 133.629C19.8125 133.629 18.6971 133.793 17.5773 133.885C15.73 134.035 13.6931 134.057 12.0266 133.127C11.9561 133.087 12.0046 132.959 12.0883 132.99C15.7961 134.339 19.6847 132.624 23.4057 133.431C21.8162 131.92 19.9553 130.723 17.9212 129.904L17.5817 129.767C15.2009 130.054 12.6879 130.671 10.3689 129.9C10.3562 129.894 10.3457 129.885 10.3395 129.873C10.3332 129.86 10.3315 129.846 10.3347 129.833C10.3379 129.82 10.3458 129.808 10.3569 129.8C10.368 129.792 10.3817 129.788 10.3954 129.789C12.6394 130.349 14.8041 129.644 17.0085 129.534C14.6013 128.595 12.1589 127.849 9.73404 126.919C9.52241 126.831 9.51801 126.664 9.73845 126.703Z" fill="#263238"/>
<path d="M8.68519 129.05C9.83485 129.198 10.9916 129.285 12.1505 129.31C12.177 129.31 12.1858 129.354 12.1505 129.358C10.9846 129.572 9.78407 129.496 8.65433 129.138C8.64854 129.136 8.64321 129.133 8.63863 129.128C8.63406 129.124 8.63033 129.119 8.62767 129.114C8.62501 129.108 8.62346 129.102 8.62312 129.096C8.62278 129.09 8.62365 129.084 8.62568 129.078C8.6277 129.072 8.63085 129.067 8.63493 129.062C8.63902 129.058 8.64396 129.054 8.64949 129.052C8.65502 129.049 8.66102 129.047 8.66714 129.047C8.67327 129.047 8.6794 129.047 8.68519 129.05Z" fill="#263238"/>
<path d="M16.5146 126.76C17.1553 127.049 17.7369 127.454 18.2296 127.955C18.2869 128.008 18.2075 128.114 18.1414 128.065C17.8504 127.854 17.5506 127.655 17.2597 127.461C16.97 127.302 16.6902 127.125 16.422 126.932C16.3338 126.866 16.4176 126.729 16.5146 126.76Z" fill="#263238"/>
<path d="M35.1774 135.339C35.1378 135.427 35.2656 135.511 35.3141 135.418C35.3239 135.432 35.3363 135.444 35.3507 135.453C35.365 135.462 35.3811 135.469 35.3979 135.471C37.5299 135.979 39.6914 136.353 41.87 136.591C43.6335 136.75 45.6307 136.847 47.1605 135.833C49.2327 134.457 50.595 130.785 49.4751 128.448C48.1525 125.675 44.1537 127.183 42.1522 128.166C39.06 129.668 36.592 132.206 35.1774 135.339Z" fill="#58E5FF"/>
<path d="M33.6219 136.623C34.7886 135.496 36.0834 134.511 37.4796 133.686C38.4845 132.101 39.8162 130.748 41.3858 129.718C41.4651 129.665 41.5268 129.785 41.4607 129.837C40.2121 130.83 39.1029 131.987 38.163 133.276C39.7237 132.424 41.3446 131.688 43.0126 131.072C43.6088 129.971 44.5126 129.067 45.6138 128.471C45.6138 128.471 45.6623 128.471 45.6403 128.506C44.731 129.194 43.9389 130.025 43.2948 130.966C44.2735 130.6 45.2699 130.261 46.2619 129.93C46.3501 129.904 46.3809 130.036 46.2972 130.071C44.5336 130.759 42.7261 131.486 40.9758 132.328C43.1121 132.661 45.2874 132.653 47.4214 132.306C47.4787 132.306 47.5052 132.381 47.4479 132.399C45.2204 133.056 42.8557 133.091 40.6098 132.5C39.4948 133.044 38.4114 133.65 37.365 134.317C38.2453 134.246 39.1312 134.319 39.9882 134.533C41.4986 134.884 43.0447 135.059 44.5954 135.053C44.6094 135.053 44.6229 135.059 44.6328 135.069C44.6427 135.078 44.6483 135.092 44.6483 135.106C44.6483 135.12 44.6427 135.133 44.6328 135.143C44.6229 135.153 44.6094 135.159 44.5954 135.159C41.9236 135.6 39.3974 134.405 36.7477 134.718C35.7656 135.388 34.8436 136.141 33.9922 136.971C32.3381 138.628 30.9757 140.552 29.9626 142.663C28.8472 144.933 28.2432 147.336 27.3438 149.681C27.3379 149.703 27.3237 149.721 27.3043 149.733C27.2849 149.744 27.2618 149.747 27.2402 149.741C27.2186 149.735 27.2001 149.721 27.189 149.701C27.1778 149.682 27.1748 149.659 27.1807 149.637C27.9566 145.017 30.258 139.916 33.6219 136.623Z" fill="#263238"/>
<path d="M41.6815 130.282C41.8578 129.967 42.0892 129.686 42.3649 129.453C42.5895 129.21 42.857 129.009 43.154 128.863C43.1597 128.861 43.1658 128.861 43.1713 128.863C43.1769 128.865 43.1815 128.869 43.1846 128.874C43.1876 128.879 43.1889 128.885 43.1882 128.891C43.1874 128.897 43.1847 128.902 43.1805 128.907C42.96 129.158 42.6558 129.347 42.4222 129.577C42.1885 129.806 41.9813 130.097 41.7432 130.331C41.7124 130.366 41.6639 130.322 41.6815 130.282Z" fill="#263238"/>
<path d="M46.091 131.721C46.4834 131.62 46.9066 131.629 47.3078 131.545C47.709 131.461 48.0926 131.316 48.4894 131.192C48.5004 131.19 48.5117 131.192 48.5214 131.198C48.5312 131.203 48.5388 131.212 48.5429 131.222C48.547 131.232 48.5475 131.244 48.5442 131.254C48.5409 131.265 48.534 131.274 48.5247 131.28C47.7966 131.729 46.942 131.927 46.091 131.845C46.0746 131.845 46.059 131.838 46.0474 131.827C46.0358 131.815 46.0293 131.799 46.0293 131.783C46.0293 131.767 46.0358 131.751 46.0474 131.739C46.059 131.728 46.0746 131.721 46.091 131.721Z" fill="#263238"/>
<path d="M22.6133 143.941L22.966 147.923L24.1564 161.369H34.6845L36.1747 147.923L36.6112 143.941H22.6133Z" fill="#37474F"/>
<path d="M22.6133 143.941L22.966 147.923H36.1747L36.6112 143.941H22.6133Z" fill="#263238"/>
<path d="M21.5749 146.084H37.6582V142.852H21.5749V146.084Z" fill="#37474F"/>
</svg>
