<svg width="18" height="19" viewBox="0 0 18 19" fill="none" xmlns="http://www.w3.org/2000/svg">
<path d="M8.98701 3C7.25359 3 5.626 3.67526 4.40404 4.90137C3.18206 6.1275 2.5091 7.76068 2.5091 9.50006C2.5091 11.2394 3.18206 12.8725 4.40404 14.0986C5.626 15.3247 7.25359 16 8.98701 16C10.7204 16 12.3481 15.3247 13.57 14.0986C14.7921 12.8725 15.465 11.2394 15.465 9.50006C15.465 7.76068 14.7921 6.12756 13.57 4.90137C12.3481 3.67526 10.7204 3 8.98701 3ZM8.98701 0.5C13.9471 0.5 17.9566 4.52301 17.9566 9.50006C17.9566 14.477 13.9471 18.5 8.98701 18.5C4.02688 18.5 0.0175781 14.477 0.0175781 9.50006C0.0175781 4.52301 4.02688 0.5 8.98701 0.5Z" fill="#58E5FF"/>
</svg>
