<svg width="26" height="26" viewBox="0 0 26 26" fill="none" xmlns="http://www.w3.org/2000/svg">
<g clip-path="url(#clip0_1032_16629)">
<path d="M13.0006 0C9.28627 0 6.25 3.03627 6.25 6.75058C6.25 10.4649 9.28627 13.5012 13.0006 13.5012C16.7149 13.5012 19.7511 10.4649 19.7511 6.75058C19.7511 3.03627 16.7149 0 13.0006 0Z" fill="url(#paint0_linear_1032_16629)"/>
<path d="M24.5867 18.896C24.4098 18.4538 24.174 18.0411 23.9087 17.6579C22.5527 15.6534 20.4598 14.3268 18.1015 14.0026C17.8067 13.9731 17.4825 14.032 17.2466 14.2089C16.0085 15.1227 14.5346 15.5944 13.0017 15.5944C11.4688 15.5944 9.99487 15.1227 8.75677 14.2089C8.52091 14.032 8.19665 13.9436 7.90189 14.0026C5.54361 14.3268 3.42118 15.6534 2.09466 17.6579C1.82936 18.0411 1.59351 18.4833 1.41667 18.896C1.32826 19.0729 1.35771 19.2792 1.44613 19.4561C1.68198 19.8688 1.97673 20.2816 2.24204 20.6353C2.65472 21.1954 3.09691 21.6965 3.59807 22.1681C4.01075 22.5808 4.48239 22.964 4.9541 23.3473C7.28287 25.0865 10.0833 26.0003 12.9722 26.0003C15.8611 26.0003 18.6616 25.0865 20.9904 23.3473C21.462 22.9936 21.9337 22.5808 22.3464 22.1681C22.818 21.6965 23.2897 21.1953 23.7024 20.6353C23.9972 20.252 24.2625 19.8688 24.4983 19.4561C24.6457 19.2792 24.6751 19.0728 24.5867 18.896Z" fill="url(#paint1_linear_1032_16629)"/>
</g>
<defs>
<linearGradient id="paint0_linear_1032_16629" x1="9.76638" y1="-9.07836" x2="19.6429" y2="-7.04707" gradientUnits="userSpaceOnUse">
<stop stop-color="#FFAB2D"/>
<stop offset="1" stop-color="#FF7A00"/>
</linearGradient>
<linearGradient id="paint1_linear_1032_16629" x1="7.42478" y1="5.9047" x2="22.7398" y2="12.0054" gradientUnits="userSpaceOnUse">
<stop stop-color="#FFAB2D"/>
<stop offset="1" stop-color="#FF7A00"/>
</linearGradient>
<clipPath id="clip0_1032_16629">
<rect width="26" height="26" fill="white"/>
</clipPath>
</defs>
</svg>
